<?xml version="1.0" standalone="no"?>
<!DOCTYPE svg PUBLIC "-//W3C//DTD SVG 1.1//EN" "http://www.w3.org/Graphics/SVG/1.1/DTD/svg11.dtd" >
<!--
2013-9-30: Created.
-->
<svg>
<metadata>
Created by iconfont
</metadata>
<defs>

<font id="iconfont" horiz-adv-x="1024" >
  <font-face
    font-family="iconfont"
    font-weight="500"
    font-stretch="normal"
    units-per-em="1024"
    ascent="896"
    descent="-128"
  />
    <missing-glyph />
    
    <glyph glyph-name="iconfontzhizuobiaozhun0262" unicode="&#59084;" d="M960.253652 192.083016c8.637728-8.636704 8.637728-22.64065 0.001023-31.277354l-281.871739-281.871739c-8.636704-8.636704-22.64065-8.636704-31.278377 0.001023l0 0c-8.636704 8.635681-8.636704 22.64065 0 31.276331l281.871739 281.871739C937.614026 200.720743 951.616948 200.720743 960.253652 192.083016L960.253652 192.083016zM960.254675-121.065054c-8.636704-8.637728-22.64065-8.637728-31.277354-0.002047l-281.871739 281.871739c-8.636704 8.636704-8.636704 22.641673 0.001023 31.278377l0 0c8.635681 8.636704 22.64065 8.636704 31.276331 0l281.871739-281.871739C968.892403-98.425428 968.892403-112.429373 960.254675-121.065054L960.254675-121.065054zM732.397131 647.019369c0-12.216229-9.901511-22.11774-22.115694-22.11774l-398.626883 0c-12.215206 0-22.116717 9.902534-22.116717 22.11774l0 0c0 12.214183 9.902534 22.115694 22.116717 22.115694l398.626883 0C722.49562 669.136086 732.397131 659.233552 732.397131 647.019369L732.397131 647.019369zM732.397131 403.247366c0-12.216229-9.901511-22.11774-22.115694-22.11774l-398.626883 0c-12.215206 0-22.116717 9.902534-22.116717 22.11774l0 0c0 12.214183 9.902534 22.115694 22.116717 22.115694l398.626883 0C722.49562 425.36306 732.397131 415.460526 732.397131 403.247366L732.397131 403.247366zM522.024819 174.872029c0-12.216229-9.901511-22.11774-22.115694-22.11774l-188.254571 0c-12.215206 0-22.116717 9.902534-22.116717 22.11774l0 0c0 12.214183 9.902534 22.115694 22.116717 22.115694l188.254571 0C512.124332 196.987722 522.024819 187.085188 522.024819 174.872029L522.024819 174.872029zM836.267826 895.544629l-648.536676 0c-71.938426 0-130.464377-58.525951-130.464377-130.464377l0-762.109338c0-71.938426 58.525951-130.464377 130.464377-130.464377l355.275539 0c0.473791-0.029676 0.949628-0.050142 1.430582-0.050142 12.446473 0 22.537296 10.090822 22.537296 22.537296 0 12.008498-9.392928 21.819958-21.230534 22.496363-0.00614 0.014326-0.01228 0.027629-0.017396 0.040932l-357.995487 0c-47.110971 0-85.438904 38.327934-85.438904 85.438904l0 762.109338c0 47.110971 38.327934 85.438904 85.438904 85.438904l648.536676 0c47.110971 0 85.438904-38.327934 85.438904-85.438904l0-467.611024c-0.029676-0.471744-0.049119-0.946558-0.049119-1.425466 0-12.446473 10.089799-22.537296 22.537296-22.537296 12.446473 0 22.537296 10.090822 22.537296 22.537296l0 469.036489C966.732204 837.017654 908.206252 895.544629 836.267826 895.544629z"  horiz-adv-x="1024" />

    
    <glyph glyph-name="wenhao" unicode="&#58929;" d="M921.3 384c0 226-183.2 409.3-409.3 409.3-226.1 0-409.3-183.2-409.3-409.3 0-226.1 183.2-409.3 409.3-409.3 92.8 0 177.8 31.6 246.4 83.6 2.8 3.2 4.7 7.3 4.7 11.9 0 10-8.1 18.1-18.1 18.1-5.2 0-9.8-2.1-13.1-5.6h-0.3c-61.4-45.2-137.1-72.3-219.2-72.3-204.7 0-370.7 166-370.7 370.7s166 370.7 370.7 370.7 370.7-165.9 370.7-370.7c0-62.5-14.7-121.4-42-173.1v-0.3c-0.5-1.7-1.1-3.4-1.1-5.3 0-10 8.1-18.1 18.1-18.1 7.8 0 14.3 5 16.9 11.9v-0.1c29.1 56.4 46.3 120.1 46.3 187.9zM465.2 175.1a32.3 32.3 0 1 1 64.6 0 32.3 32.3 0 1 1-64.6 0zM575.9 379.4c40.3 20.3 90.4 45.6 90.4 114.1 0 78.1-67.3 132.6-163.7 132.6-70.1 0-131.9-40.2-153.8-100.1-5-13.8-9.4-36.7-5.1-55.9 2.6-11.6 14.2-18.9 25.7-16.3 11.6 2.6 18.9 14.1 16.3 25.7-1.7 7.8-0.3 21.5 3.5 31.8 13 35.7 53.1 71.7 113.3 71.7 71 0 120.6-36.8 120.6-89.5 0-40-25.3-54.8-66.7-75.7-36-18.2-80.8-40.8-80.8-96.7v-53.3c0-11.9 9.6-21.6 21.5-21.6s21.5 9.7 21.5 21.6v53.3c0.1 28.1 20.8 39.9 57.3 58.3z"  horiz-adv-x="1024" />

    
    <glyph glyph-name="yaoqinghaoyou" unicode="&#58927;" d="M844.68452 115.125273l-81.193207 0 0-77.459163c0-6.118348-5.245468-11.123338-11.70253-11.123338l-30.430056 0c-6.412037 0-11.647271 5.006014-11.647271 11.123338l0 77.459163-81.247442 0c-6.460132 0-11.7056 4.948709-11.7056 11.146874l0 28.945239c0 6.219655 5.245468 11.200086 11.7056 11.200086l81.247442 0 0 77.431533c0 6.141884 5.235235 11.149944 11.647271 11.149944l30.430056 0c6.456039 0 11.70253-5.008061 11.70253-11.149944l0-77.431533 81.193207 0c6.460132 0 11.648294-5.02955 11.70253-11.200086l0-28.945239C856.38705 120.073982 851.145675 115.125273 844.68452 115.125273L844.68452 115.125273zM589.775876 347.338009c29.762861-9.268084 57.700143-22.641673 83.044368-39.427988 5.694699-3.76679 9.423627-10.090822 9.375531-17.325597 0-11.438517-9.53619-20.75879-21.23872-20.75879-4.663206 0-8.975419 1.512447-12.499685 4.052293l-0.053212-0.106424c-44.857651 29.577642-98.907661 46.843888-157.085688 46.843888-155.25704 0-281.172821-123.030058-281.172821-274.739295-0.718361-10.831696-10.039657-19.435655-21.292955-19.435655-11.280928 0-20.418029 8.603959-21.131273 19.435655-0.054235 0-0.107447 1.666966-0.107447 1.824555 0.820692 140.432403 95.227852 259.09499 225.325885 299.636335-68.503187 34.768875-115.321492 104.678084-115.321492 185.367825 0 115.37982 95.674013 208.853725 213.758432 208.853725 118.075209 0 213.775828-93.473905 213.775828-208.853725C705.15058 452.074422 658.307715 382.10586 589.775876 347.338009L589.775876 347.338009zM491.374752 699.827085c-94.463442 0-171.016978-74.830289-171.016978-167.120228 0-92.288916 76.552513-167.098739 171.016978-167.098739 94.456279 0 171.040515 74.809823 171.040515 167.098739C662.415266 624.996796 585.831031 699.827085 491.374752 699.827085L491.374752 699.827085zM491.374752 699.827085"  horiz-adv-x="1024" />

    
    <glyph glyph-name="yaoqinghaoyou1" unicode="&#58928;" d="M873.955585 745.884817c-96.717068 96.717068-225.172775 150.115183-361.992042 150.115183s-265.274974-53.183665-361.992041-149.900733c-186.571728-186.571728-200.082094-484.657592-33.883142-686.669738-22.946178-46.964607-50.181361-78.274346-80.633298-93.285864-18.657173-9.221361-29.165236-29.379686-26.162932-49.966911 3.216754-20.801675 19.086073-36.885445 39.887749-40.102199 11.365864-1.715602 23.589529-2.787853 36.242094-2.787853 62.833927 0 128.884607 21.659476 183.998324 59.617172 74.199791-39.887749 157.620942-60.903874 242.543246-60.903874 136.819267 0 265.274974 53.183665 361.992042 149.900733s149.900733 225.387225 149.900733 361.992042-53.183665 265.274974-149.900733 361.992042z m-40.96-683.024084c-85.780105-85.780105-199.867644-132.959162-321.032042-132.959162-81.062199 0-160.623246 21.659476-229.89068 62.405026-4.503455 2.573403-9.650262 4.074555-14.582618 4.074555-6.219058 0-12.652565-2.144503-17.799372-6.004607-65.62178-50.824712-131.672461-58.330471-160.623246-58.973822 34.526492 25.734031 63.477277 65.62178 87.710157 121.164397 4.503455 10.293613 2.573403 22.302827-4.932356 30.880838-158.693194 179.280419-150.329634 452.490052 19.086074 621.905759 85.780105 85.780105 199.867644 132.959162 321.032041 132.959163 121.378848 0 235.251937-47.179058 321.032042-132.959163 177.135916-177.350366 177.135916-465.571518 0-642.492984zM641.920402 618.501361c-46.321257 0-89.85466-18.013822-122.66555-50.824712l-7.291309-7.291309-7.291308 7.291309c-32.81089 32.81089-76.344293 50.824712-122.66555 50.824712-46.106806 0-89.640209-18.013822-122.236649-50.610262-32.81089-32.81089-50.824712-76.344293-50.610262-122.451099 0-46.321257 18.228272-89.640209 50.824712-122.451099l231.391832-231.391833c5.575707-5.575707 13.081466-8.57801 20.372775-8.57801s14.797068 2.787853 20.372775 8.36356l232.035183 231.177382c32.81089 32.81089 50.824712 76.344293 50.824712 122.451099 0 46.321257-18.013822 89.85466-50.610261 122.66555-32.81089 32.81089-76.344293 50.824712-122.4511 50.824712z m81.276649-254.981361l-211.447958-210.590157-211.019057 211.019058c-21.873927 21.873927-33.883141 50.824712-33.883142 81.705549 0 30.880838 12.009215 59.831623 33.668691 81.4911 21.659476 21.659476 50.610262 33.668691 81.4911 33.668691s59.831623-12.009215 81.70555-33.883142l27.878534-27.878534c11.365864-11.365864 29.594136-11.365864 40.96 0l27.664083 27.664084c21.873927 21.873927 50.824712 33.883141 81.70555 33.883142 30.666387 0 59.617173-12.009215 81.4911-33.883142s33.883141-50.824712 33.668691-81.491099c0-30.880838-12.009215-59.831623-33.883142-81.70555z"  horiz-adv-x="1024" />

    
    <glyph glyph-name="jia1" unicode="&#58921;" d="M544 684 480 684 480 332 128 332 128 268 480 268 480-84 544-84 544 268 895.936 268 895.936 332 544 332Z"  horiz-adv-x="1024" />

    
    <glyph glyph-name="jiaoyijilu" unicode="&#58909;" d="M514.83 428.235l-193.344 193.344c-13.038 13.038-34.076 13.004-47.073 0.008-12.97-12.97-12.993-34.072 0.008-47.073l220.828-220.828c13.038-13.038 34.076-13.004 47.073-0.008 4.824 4.825 7.858 10.774 9.095 17.013l65.589 65.589c12.989 12.989 12.998 34.070 0.002 47.067-12.97 12.97-34.069 12.996-47.067-0.002l-55.111-55.111zM702.425 12.8h231.964c18.438 0 33.291 14.9 33.291 33.28 0 18.343-14.905 33.28-33.291 33.28h-312.298c-18.438 0-33.291-14.9-33.291-33.28 0-10.044 4.469-19.066 11.531-25.175 0.558-0.652 1.146-1.287 1.763-1.904l75.366-75.366c12.989-12.989 34.070-12.998 47.067-0.002 12.97 12.97 12.996 34.069-0.002 47.067l-22.1 22.1zM955.49 208.394c10.316-5.662 17.31-16.629 17.31-29.194 0-18.38-14.853-33.28-33.291-33.28h-312.298c-18.386 0-33.291 14.937-33.291 33.28 0 18.38 14.853 33.28 33.291 33.28h231.964l-31.801 31.801c-12.998 12.998-12.972 34.096-0.002 47.067 12.997 12.997 34.077 12.988 47.067-0.002l75.366-75.366c2.304-2.304 4.199-4.863 5.685-7.586zM512-35.84c-229.044 0-414.72 185.676-414.72 414.72 0 229.044 185.676 414.72 414.72 414.72 229.044 0 414.72-185.676 414.72-414.72 0-19.794 16.046-35.84 35.84-35.84 19.794 0 35.84 16.046 35.84 35.84 0 268.631-217.769 486.4-486.4 486.4-268.631 0-486.4-217.769-486.4-486.4 0-268.631 217.769-486.4 486.4-486.4 19.794 0 35.84 16.046 35.84 35.84 0 19.794-16.046 35.84-35.84 35.84z"  horiz-adv-x="1024" />

    
    <glyph glyph-name="shipin" unicode="&#59089;" d="M1001.761391 647.168c-21.615304 13.55687-50.086957 13.55687-78.135652 0l-206.536348-99.750957 0 41.115826c0 61.373217-49.93113 111.304348-111.304348 111.304348L123.035826 699.837217c-61.373217 0-111.304348-42.896696-111.304348-95.632696l0-433.797565c0-63.465739 28.761043-111.304348 66.938435-111.304348l44.677565 0 0 44.521739L78.669913 103.624348c-4.429913 0-22.416696 21.481739-22.416696 66.782609L56.253217 604.204522c0 27.714783 30.586435 51.110957 66.782609 51.110957l482.749217 0c36.819478 0 66.782609-29.96313 66.782609-66.782609l0-418.125913c0-36.819478-29.96313-66.782609-66.782609-66.782609L262.633739 103.624348l0-44.521739 343.151304 0c61.373217 0 111.304348 49.93113 111.304348 111.304348l0 40.96 206.60313-100.663652c14.113391-6.878609 28.315826-10.306783 41.71687-10.306783 13.222957 0 25.644522 3.33913 36.374261 10.061913 21.593043 13.490087 33.970087 39.112348 33.970087 70.299826L1035.753739 576.801391C1035.731478 607.966609 1023.354435 633.61113 1001.761391 647.168zM991.209739 180.758261c0-15.493565-4.763826-27.358609-13.04487-32.545391-8.325565-5.164522-21.058783-4.251826-34.971826 2.515478L717.089391 260.897391 717.089391 497.997913l225.881043 109.078261c13.957565 6.722783 26.779826 7.613217 35.105391 2.381913 8.347826-5.231304 13.133913-17.14087 13.133913-32.656696L991.209739 180.758261zM172.78887 538.802087m-32.300522 0a1.451 1.451 0 1 0 64.601043 0 1.451 1.451 0 1 0-64.601043 0ZM816.64 262.500174"  horiz-adv-x="1036" />

    
    <glyph glyph-name="feiji" unicode="&#59169;" d="M597.056741 319.731041 415.694786 148.241762l27.322823-198.793582-68.460513-69.706669L246.095906 87.243631 20.031093 241.347584l67.711761 69.428863 208.527355-41.05964 170.346309 189.477841-449.162401 166.418669 117.23256 119.419285 498.864434-96.84032L799.51074 814.223348c50.625406 51.204829 102.110686 79.412661 144.960186 79.412661 24.105572 0 44.927749-8.768068 61.888431-26.062116 9.713929-9.84754 26.125614-31.394657 26.818805-64.974717 0.910143-44.026866-25.079214-93.300285-77.244456-146.451075L788.534781 488.825903l85.598461-494.479077-117.797431-119.984156L597.056741 319.731041zM775.693556-37.371938l46.917365 47.716386-85.717521 494.84287L921.890637 689.968925c59.987448 61.109253 78.771062 114.921484 50.219281 143.921723-8.237592 8.335485-17.901251 12.390121-29.538652 12.390121-16.477829 0-52.566075-8.557729-109.1471-65.868986L649.409831 596.188433l-498.636898 96.872069-47.324813-48.224373 445.95441-165.295542L313.725649 217.400757 130.314549 253.527366l-9.695409-22.683473 164.892062-116.080329 79.73809-128.735027 23.208658 8.357974-23.637272 171.735336 252.662697 238.913975L775.693556-37.371938zM598.748708 326.80185 411.478758 149.726037l27.334729-198.884861-63.543357-64.699557L249.032706 90.052112 26.185144 241.962724l62.901759 64.495833 208.63054-41.07816 175.767483 195.507541L24.59107 627.208714l111.43701 113.513936 498.841945-96.836351L802.321866 811.413544c49.908403 50.481212 100.368449 78.248524 142.147737 78.248524 22.998319 0 42.865375-8.367234 59.050847-24.870199 9.326324-9.454644 25.017039-30.070451 25.682449-62.27339 0.887654-42.91829-24.723359-91.229974-76.108099-143.584387L784.26716 490.179212l85.60243-494.501566-111.925154-114.003403L598.748708 326.80185zM774.084931-44.67822l52.790965 53.689203-85.713552 494.821704 183.536774 183.32379c61.729685 62.883239 80.511976 118.77901 50.243093 149.522809-9.033967 9.142444-19.615708 13.575424-32.370945 13.575424-17.098262 0-54.379747-8.711184-111.976746-67.051643L648.09224 600.494417 149.432853 697.370455l-53.11904-54.129723 446.220309-165.394758L312.278415 221.737167 127.9241 258.04898l-12.226084-28.602051 166.860512-117.46671 81.006735-130.78285 29.268784 10.540731-23.797341 172.900795 246.753379 233.326118L774.084931-44.67822z"  horiz-adv-x="1078" />

    
    <glyph glyph-name="xiangji" unicode="&#58919;" d="M856.375793 583.793372 856.375793 550.19209 856.375793 550.19209ZM648.000975 799.402965 679.264003 799.402965 648.000975 799.402965ZM388.195811 772.573084c-6.930853-0.663102-13.045107-4.875031-16.190751-11.096732l-55.517431-110.775966L186.983113 650.700385c-67.209728 0-121.898281-54.721299-121.898281-121.887025l0-385.990075c0-67.165726 54.688553-121.848139 121.898281-121.848139l650.033773 0c67.209728 0 121.898281 54.682413 121.898281 121.848139l0 385.991098c0 67.165726-54.688553 121.887025-121.898281 121.887025L707.510324 650.701409l-55.530734 110.775966c-3.471055 6.798846-10.414187 11.096732-18.082844 11.096732L390.113487 772.574107C389.474944 772.617086 388.87324 772.617086 388.195811 772.573084zM402.456606 731.950898l219.083717 0 55.177694-110.450555c3.39533-6.949272 10.400884-11.374048 18.108426-11.441587l142.187373 0c45.403073 0 81.243349-35.891442 81.243349-81.245396l0-385.990075c0-45.366234-35.840276-81.232093-81.243349-81.232093L186.983113 61.591193c-45.416376 0-81.232093 35.865859-81.232093 81.232093l0 385.991098c0 45.353954 35.815717 81.245396 81.232093 81.245396l142.199653 0c7.695263 0.068562 14.700817 4.492314 18.09717 11.441587L402.456606 731.950898zM511.998465 559.273093c-123.17639 0-223.432769-100.273774-223.432769-223.451188 0-123.138528 100.255355-223.438908 223.432769-223.438908 123.177414 0 223.446072 100.299357 223.446072 223.438908C735.44556 458.998295 635.175879 559.273093 511.998465 559.273093zM511.998465 518.649884c101.246939 0 182.829002-81.608669 182.829002-182.829002 0-101.208053-81.582063-182.821839-182.829002-182.821839-101.245915 0-182.816722 81.612763-182.816722 182.821839C329.182766 437.042238 410.753573 518.649884 511.998465 518.649884zM509.141394 478.015418c-11.20418-0.788969-19.661805-10.520611-18.860557-21.736047 0.775666-11.222599 10.526751-19.675108 21.717627-18.872836 56.356542 0 101.596909-45.240367 101.596909-101.585653-0.187265-11.203156 8.748245-20.464077 20.00052-20.632923l0 0c11.1919-0.174985 20.427238 8.778944 20.615527 20.007683 0 0.195451 0 0.408299 0 0.626263 0 78.299297-63.888076 142.193513-142.212956 142.193513C511.072373 478.07784 510.106372 478.07784 509.141394 478.015418z"  horiz-adv-x="1024" />

    
    <glyph glyph-name="xiangji1" unicode="&#59216;" d="M864.256 0h-704.512c-52.736 0-96.256 43.008-96.256 96.256v447.488c0 52.736 43.008 96.256 96.256 96.256h124.928l36.864 75.264c15.872 31.744 49.664 52.736 86.528 52.736h209.408c36.864 0 68.608-20.992 86.528-52.736l36.864-75.264h123.392c52.736 0 96.256-43.008 96.256-96.256v-448c-0.512-52.736-43.52-95.744-96.256-95.744zM159.744 576c-17.408 0-31.744-14.336-31.744-31.744v-448c0-17.408 14.336-31.744 31.744-31.744h704c17.408 0 31.744 14.336 31.744 31.744v447.488c0 17.408-14.336 31.744-31.744 31.744h-143.872c-12.8 0-24.064 6.144-28.672 17.408l-46.592 92.672c-4.608 11.264-15.872 17.408-28.672 17.408h-207.872c-12.8 0-22.528-6.144-28.672-17.408l-46.592-92.16c-4.608-11.264-15.872-17.408-28.672-17.408h-144.384zM512 159.744c-97.792 0-176.128 78.336-176.128 176.128s78.336 176.128 176.128 176.128 176.128-78.336 176.128-176.128-78.336-176.128-176.128-176.128zM512 448c-62.464 0-112.128-49.664-112.128-112.128s49.664-112.128 112.128-112.128 112.128 49.664 112.128 112.128-49.664 112.128-112.128 112.128zM787.456 517.12c0-0 0-0 0-0 0-17.532 14.212-31.744 31.744-31.744 17.532 0 31.744 14.212 31.744 31.744 0 0 0 0 0 0-0 17.532-14.212 31.744-31.744 31.744-17.532 0-31.744-14.212-31.744-31.744z"  horiz-adv-x="1024" />

    
    <glyph glyph-name="daipingjia1" unicode="&#58893;" d="M963.490964 563.92036c-13.137374 0-23.834829-11.416294-23.834828-25.431845v-392.242027c0-29.691366-22.673252-53.882574-50.507311-53.882573H756.236449c-13.137374 0-23.844559-11.417511-23.844559-25.434278 0-14.015551 10.707185-25.43671 23.844559-25.43671h133.012113c54.103942 0 98.086961 46.927708 98.086962 104.651391V538.588253c0 14.016767-10.612313 25.332108-23.84456 25.332107z m-379.489006-19.308936c0 14.017983-10.704752 25.439143-23.834829 25.439143H186.027457c-13.137374 0-23.842127-11.42116-23.842126-25.439143 0-14.016767 10.704752-25.431845 23.842126-25.431845h374.140888c13.130076 0.099737 23.833612 11.415078 23.833613 25.431845zM186.027457 419.715754c-13.137374 0-23.842127-11.422376-23.842126-25.439143 0-14.015551 10.704752-25.431845 23.842126-25.431845h270.505116c13.137374 0 23.842127 11.416294 23.842127 25.431845 0 14.016767-10.704752 25.439143-23.842127 25.439143H186.027457zM991.513552 830.850738c-9.239098 9.966452-24.326218 10.068622-33.665054 0.207989L543.429474 392.61513c-9.3437-9.859416-9.443438-25.956075-0.19461-35.922526 4.473592-4.77402 10.50771-7.577617 16.933481-7.471798 6.3236 0 12.257981 2.596824 16.731573 7.369627L991.318942 794.923346c9.443438 9.866714 9.443438 25.956075 0.19461 35.927392z m0 0M609.015392 86.137619l-102.661507-96.867002-102.654209 96.867002c-0.099737 0.10217-0.19461 0.203124-0.294348 0.203124-0.290698 0.315025-0.679918 0.625184-1.069137 0.938992l-0.874527 0.621535c-0.294347 0.207989-0.683567 0.519365-1.074003 0.726137-0.289482 0.207989-0.678701 0.415978-0.9694 0.623968a3.433646 3.433646 0 0 1-1.072786 0.518148c-0.390436 0.206773-0.679918 0.414762-1.069137 0.521798-0.290698 0.207989-0.679918 0.308943-1.069138 0.415978-0.390436 0.10217-0.779655 0.308943-1.168874 0.417195-0.389219 0.098521-0.679918 0.205557-1.069138 0.30651l-1.168874 0.310159c-0.389219 0.107035-0.679918 0.107035-1.069138 0.20799-0.389219 0.108252-0.879393 0.209205-1.268612 0.209205-0.289482 0-0.678701 0.107035-0.9694 0.107035-0.488957 0-0.878176 0.100954-1.363484 0.100954H123.558945c-27.827978 0-50.501229 24.191208-50.50123 53.882574V670.545824c0 29.696231 22.673252 53.888655 50.50123 53.888656h534.880024c13.137374 0 23.844559 11.416294 23.84456 25.433061 0 14.016767-10.707185 25.439143-23.84456 25.439143H123.558945c-54.102726 0-98.084529-46.927708-98.084529-104.653824V146.351091c0-57.7249 43.981803-104.651392 98.084529-104.651392h255.425293l111.410431-105.170756 0.19461-0.207989c0.490173-0.523014 1.074003-0.93291 1.659048-1.455924 0.19461-0.207989 0.484092-0.308943 0.678701-0.518149 0.485308-0.312592 0.974265-0.729787 1.459574-1.038729 0.294347-0.207989 0.488957-0.308943 0.778439-0.415978 0.485308-0.206773 0.874528-0.516932 1.363484-0.724922 0.290698-0.107035 0.485308-0.207989 0.779655-0.315024 0.678701-0.307727 1.458357-0.622751 2.238012-0.831957 0.484092-0.207989 0.9694-0.310159 1.55323-0.415978 0.294347-0.10217 0.488957-0.10217 0.779655-0.201908 0.583829-0.108252 1.069137-0.206773 1.652966-0.313808 0.19461 0 0.389219-0.100954 0.585046-0.100954 0.778439-0.107035 1.558094-0.107035 2.336533-0.107035 0.77479 0 1.554445 0 2.332885 0.107035 0.195826 0 0.390436 0.100954 0.585045 0.100954 0.583829 0.107035 1.168875 0.205557 1.652967 0.313808 0.294347 0 0.490173 0.099737 0.779655 0.201908 0.484092 0.105819 0.975481 0.313808 1.556878 0.415978 0.782088 0.209205 1.458357 0.52423 2.240445 0.831957 0.287049 0.107035 0.481659 0.207989 0.779655 0.315024 0.484092 0.207989 0.872095 0.518148 1.358619 0.724922 0.294347 0.107035 0.486524 0.310159 0.777223 0.415978a12.035397 12.035397 0 0 1 1.460789 1.038729c0.19461 0.10217 0.389219 0.310159 0.582613 0.417195a11.220468 11.220468 0 0 1 1.652967 1.449843l0.197042 0.209205 118.22907 111.607474c9.82536 9.349782 10.799625 25.330891 2.04097 35.820356-8.762304 10.590419-23.739957 11.522113-33.665053 2.286665z m0 0"  horiz-adv-x="1024" />

    
    <glyph glyph-name="shafa" unicode="&#58903;" d="M955.461818 535.714909h-82.641454v124.602182c0 38.493091-31.325091 69.818182-69.818182 69.818182h-581.818182c-38.493091 0-69.818182-31.325091-69.818182-69.818182v-124.602182h-82.618182c-37.864727 0-68.654545-30.580364-68.654545-68.189091v-282.530909c0-37.585455 30.789818-68.189091 68.654545-68.189091h4.701091v-63.045818a23.272727 23.272727 0 1 1 46.545455 0v63.069091h768v-63.045818a23.272727 23.272727 0 1 1 46.545454 0V116.829091h20.898909c37.841455 0 68.631273 30.580364 68.631273 68.189091V467.549091c0.023273 37.585455-30.766545 68.165818-68.608 68.165818z m-129.186909 124.625455v-256a23.272727 23.272727 0 0 0-23.272727-23.272728h-267.636364v302.545455h267.636364c12.846545 0 23.272727-10.449455 23.272727-23.272727z m-628.363636 0c0 12.823273 10.449455 23.272727 23.272727 23.272727h267.636364v-302.545455h-267.636364c-12.823273 0-23.272727 10.449455-23.272727 23.272728v256z m779.636363-475.345455a21.876364 21.876364 0 0 0-22.085818-21.643636H68.747636a21.899636 21.899636 0 0 0-22.109091 21.643636v282.530909c0 11.938909 9.914182 21.643636 22.109091 21.643637h82.618182v-84.852364c0-8.215273 1.675636-15.965091 4.305455-23.272727H120.250182a23.272727 23.272727 0 0 1 0-46.545455h791.249454a23.272727 23.272727 0 1 1 0 46.545455h-42.984727c2.606545 7.307636 4.305455 15.080727 4.305455 23.272727v84.852364h82.641454a21.876364 21.876364 0 0 0 22.085818-21.643637v-282.530909z"  horiz-adv-x="1024" />

    
    <glyph glyph-name="geren" unicode="&#59242;" d="M597.784832 382.374603c63.209877 32.146737 106.553792 97.52381 106.553792 173.014462 0 106.914991-87.04903 193.964021-193.964021 193.964021S316.410582 662.304056 316.410582 555.389065c0-75.490653 43.343915-140.867725 106.553792-173.014462-109.443386-36.842328-188.907231-140.506526-188.907231-262.230688 0-13.003175 10.47478-23.477954 23.477954-23.477954s23.477954 10.47478 23.477954 23.477954c0 126.419753 102.941799 229.361552 229.361552 229.361552s229.361552-102.941799 229.361552-229.361552c0-13.003175 10.47478-23.477954 23.477954-23.477954s23.477954 10.47478 23.477954 23.477954c0 121.724162-79.102646 225.38836-188.907231 262.230688z m-234.418342 173.014462c0 80.908642 66.099471 147.008113 147.008113 147.008113 80.908642 0 147.008113-66.099471 147.008113-147.008113 0-80.908642-66.099471-147.008113-147.008113-147.008113-81.269841 0-147.008113 65.738272-147.008113 147.008113z m0 0M874.102293 746.102293C777.300882 842.903704 648.713933 896 511.8194 896S246.699118 842.903704 149.897707 746.102293C53.096296 649.300882 0 520.713933 0 384.1806S53.096296 118.699118 149.897707 21.897707c96.801411-96.801411 225.38836-149.897707 361.921693-149.897707S777.300882-74.542504 874.102293 21.897707c96.801411 96.801411 149.897707 225.38836 149.897707 361.921693S970.542504 649.300882 874.102293 746.102293z m-362.282893-827.146385c-256.451499 0-464.863492 208.411993-464.863492 464.863492S255.729101 849.044092 511.8194 849.044092c256.451499 0 464.863492-208.411993 464.863492-464.863492s-208.411993-465.224691-464.863492-465.224692z m0 0"  horiz-adv-x="1024" />

    
    <glyph glyph-name="navicon-jytj" unicode="&#58949;" d="M371.712 61.440000000000055c-14.336 0-25.6 11.264-25.6 25.6v166.912c0 14.336 11.264 25.6 25.6 25.6s25.6-11.264 25.6-25.6V87.03999999999996c0-14.336-11.264-25.6-25.6-25.6zM522.24 61.440000000000055c-14.336 0-25.6 11.264-25.6 25.6V502.784c0 14.336 11.264 25.6 25.6 25.6s25.6-11.264 25.6-25.6V87.03999999999996c0-14.336-11.264-25.6-25.6-25.6zM676.352 61.440000000000055c-14.336 0-25.6 11.264-25.6 25.6V395.776c0 14.336 11.264 25.6 25.6 25.6s25.6-11.264 25.6-25.6V87.03999999999996c0-14.336-11.264-25.6-25.6-25.6zM397.824 677.888c-14.336 0-25.6 11.264-25.6 25.6V773.12c0 14.336 11.264 25.6 25.6 25.6s25.6-11.264 25.6-25.6v-69.632c0-14.336-11.264-25.6-25.6-25.6zM518.656 677.888c-14.336 0-25.6 11.264-25.6 25.6V773.12c0 14.336 11.264 25.6 25.6 25.6s25.6-11.264 25.6-25.6v-69.632c0-14.336-11.264-25.6-25.6-25.6zM640.512 677.888c-14.336 0-25.6 11.264-25.6 25.6V773.12c0 14.336 11.264 25.6 25.6 25.6s25.6-11.264 25.6-25.6v-69.632c0-14.336-11.264-25.6-25.6-25.6zM990.208-120.32000000000005H46.592c-14.336 0-25.6 11.264-25.6 25.6V741.888c0 14.336 11.264 25.6 25.6 25.6H250.88c14.336 0 25.6-11.264 25.6-25.6s-11.264-25.6-25.6-25.6H72.192v-785.408h892.416V716.288h-169.472c-14.336 0-25.6 11.264-25.6 25.6s11.264 25.6 25.6 25.6h195.072c14.336 0 25.6-11.264 25.6-25.6v-836.608c0-14.336-11.264-25.6-25.6-25.6z"  horiz-adv-x="1030" />

    
    <glyph glyph-name="yingxiaozhongxin" unicode="&#59428;" d="M248.525 63.43124999999998c17.55 8.55 33.4125 20.025 46.9125 33.80625A337.275 337.275 0 0 1 512.675 18.375c81.1125 0 157.3875 28.6875 217.2375 78.8625 13.5-13.78125 29.3625-25.25625 46.85625-33.75A393.3 393.3 0 0 0 512.675-37.875a393.3 393.3 0 0 0-264.15 101.30625zM118.7 374.54999999999995a394.3125 394.3125 0 0 0 225.225 337.33125c1.125-19.9125 5.625-38.8125 13.10625-56.30625A338.0625 338.0625 0 0 1 175.7375 384h-1.125c-19.63125 0-38.41875-3.375-55.9125-9.45z m787.5 0.16875A169.03125 169.03125 0 0 1 848.825 384a671.23125 671.23125 0 0 1-3.99375 35.04375 338.11875 338.11875 0 0 1-176.5125 236.53125 167.625 167.625 0 0 1 13.10625 56.25 394.48125 394.48125 0 0 0 218.8125-282.31875c0.45-2.53125 4.21875-31.55625 5.9625-54.7875zM512 609a112.5 112.5 0 1 0 0 225 112.5 112.5 0 0 0 0-225z m337.5-506.25a112.5 112.5 0 1 0 0 225 112.5 112.5 0 0 0 0-225zM174.5 102.75a112.5 112.5 0 1 0 0 225 112.5 112.5 0 0 0 0-225zM512 665.25a56.25 56.25 0 1 1 0 112.5 56.25 56.25 0 0 1 0-112.5z m337.5-506.25a56.25 56.25 0 1 1 0 112.5 56.25 56.25 0 0 1 0-112.5zM174.5 159a56.25 56.25 0 1 1 0 112.5 56.25 56.25 0 0 1 0-112.5z"  horiz-adv-x="1024" />

    
    <glyph glyph-name="youyongchi" unicode="&#58925;" d="M84.5312 65.93024c39.43936 0 61.2608 19.54816 80.512 36.80256 18.02752 16.14848 32.27136 28.90752 61.25568 28.90752 26.6752 0 37.19168-10.85952 51.74784-25.89184 17.1776-17.7408 38.55872-39.81824 86.13888-39.81824 46.21824 0 69.8624 21.16096 88.85248 38.15424 17.2032 15.39584 30.7968 27.55584 60.79488 27.55584 29.62944 0 41.40544-11.37664 57.71776-27.12064 17.80736-17.19296 39.9616-38.58944 86.29248-38.58944 45.60384 0 70.26688 20.0704 92.01664 37.78048 19.16928 15.61088 34.30912 27.9296 63.70816 27.9296 30.24896 0 42.22976-12.93824 57.40032-29.32224 15.02208-16.21504 33.69984-36.38784 69.888-36.38784a20.00896 20.00896 0 0 1 0 40.0128c-17.87392 0-26.1888 8.07936-40.52992 23.56736-16.47104 17.78688-39.02976 42.14784-86.7584 42.14784-43.62752 0-67.72224-19.61472-88.97536-36.92032-19.7632-16.09216-35.37408-28.79488-66.75456-28.79488-30.16192 0-42.66496 12.07296-58.496 27.35616-17.69472 17.09056-39.72608 38.35904-85.51424 38.35904-45.29152 0-68.6848-20.9408-87.48032-37.76-17.45408-15.62112-31.24224-27.9552-62.17216-27.9552-30.62272 0-41.85088 11.5968-57.38496 27.63776-16.42496 16.96256-36.86912 38.07744-80.49664 38.07744-44.288 0-68.50048-21.69856-87.95648-39.13216-16.57856-14.85312-29.6704-26.58304-53.80608-26.58304a20.00896 20.00896 0 0 1 0-40.0128zM940.86144-22.43072c-17.87392 0-26.1888 8.07936-40.52992 23.56736-16.47104 17.78688-39.02976 42.14784-86.7584 42.14784-43.62752 0-67.72224-19.61472-88.97536-36.9152-19.7632-16.09216-35.37408-28.8-66.75456-28.8-30.16192 0-42.65984 12.06784-58.496 27.36128-17.69472 17.08544-39.72608 38.35392-85.51424 38.35392-45.29152 0-68.6848-20.93568-87.48032-37.75488-17.45408-15.62112-31.24224-27.96032-62.17216-27.96032-30.62272 0-41.85088 11.5968-57.38496 27.63776-16.42496 16.96256-36.86912 38.07744-80.49664 38.07744-44.288 0-68.50048-21.69344-87.95648-39.13216-16.57856-14.85312-29.6704-26.58304-53.80608-26.58304a20.00896 20.00896 0 0 1 0-40.0128c39.43936 0 61.25568 19.54816 80.512 36.79744 18.02752 16.15872 32.27136 28.91776 61.25056 28.91776 26.6752 0 37.1968-10.85952 51.75296-25.89696 17.1776-17.74592 38.55872-39.81824 86.13376-39.81824 46.21824 0 69.8624 21.15584 88.8576 38.15424 17.2032 15.40096 30.7968 27.56096 60.79488 27.56096 29.62432 0 41.41056-11.38176 57.71264-27.13088 17.81248-17.18784 39.96672-38.58432 86.29248-38.58432 45.60896 0 70.26688 20.0704 92.01664 37.7856 19.16928 15.60064 34.30912 27.9296 63.70816 27.9296 30.24896 0 42.23488-12.93824 57.40544-29.32224 15.01696-16.21504 33.69984-36.39296 69.88288-36.39296a20.00896 20.00896 0 0 1 0.00512 40.0128zM337.72544 176.11264a19.96288 19.96288 0 0 1 19.95264 20.00896v96.51712h347.92448v-96.51712a19.968 19.968 0 0 1 19.95776-20.00896 19.96288 19.96288 0 0 1 19.94752 20.00896V575.2832c0 61.53216 18.70848 116.43392 52.4288 154.60352 34.4832 39.04 83.11808 59.66848 140.36992 59.66848 11.04896 0 19.98848 8.96 19.98848 20.00896s-8.98048 20.00896-20.02944 20.00896c-69.04832 0-127.95904-25.30816-170.26048-73.1904-40.18688-45.48608-62.40768-109.7984-62.40768-181.0944v-1.23392H357.67808v1.2288c0 61.53216 18.56 116.43392 52.28032 154.60352 34.4832 39.04 82.9696 59.66848 140.22144 59.66848 11.04896 0 20.01408 8.96 20.01408 20.00896s-8.94464 20.00896-19.9936 20.00896c-69.04832 0-127.88224-25.30816-170.17856-73.1904-40.18688-45.48608-62.24896-109.7984-62.24896-181.0944v-379.1616a19.96288 19.96288 0 0 1 19.95264-20.01408z m367.87712 358.02624v-201.58976H357.67808V534.13888h347.92448z"  horiz-adv-x="1024" />

    
    <glyph glyph-name="fangzi" unicode="&#58891;" d="M1231.530667 457.728L1073.493333 579.242667c0.341333 1.536 0.512 3.072 0.512 4.608V794.112c0 12.8-10.410667 23.210667-23.210666 23.210667h-144.042667c-12.8 0-23.210667-10.410667-23.210667-23.210667v-68.949333L707.242667 860.501333c-8.362667 6.485333-19.968 6.485333-28.330667 0l-524.117333-402.773333c-4.949333-3.754667-8.021333-9.386667-8.874667-15.189333v-5.973334c0.170667-1.536 0.512-3.072 1.024-4.608 3.072-9.386667 11.946667-15.701333 22.016-15.701333h143.530667v-422.229333c0-54.954667 44.714667-99.669333 99.669333-99.669334h562.176c54.954667 0 99.669333 44.714667 99.669333 99.669334V416.085333h143.530667c9.898667 0 18.773333 6.314667 22.016 15.701334 3.072 9.557333 0 19.797333-8.021333 25.941333zM929.792 770.901333h97.792V614.4l-97.792 75.093333V770.901333z m97.792-777.045333c0-29.354667-23.893333-53.418667-53.418667-53.418667H411.989333c-29.354667 0-53.418667 23.893333-53.418666 53.418667V427.690667l334.506666 253.44 334.506667-253.44v-433.834667zM1058.645333 462.506667L707.242667 728.746667c-8.362667 6.314667-19.626667 6.314667-27.989334 0L327.68 462.506667h-90.794667L693.077333 813.056 1149.44 462.506667h-90.794667zM475.136 336.896c-8.533333-33.109333-10.069333-85.845333 29.696-149.162667 35.84-57.344 97.962667-110.250667 183.978667-157.354666 3.413333-1.877333 7.168-2.901333 11.093333-2.901334 3.754667 0 7.68 1.024 11.093333 2.901334 86.186667 46.933333 148.138667 100.010667 183.978667 157.354666 39.765333 63.317333 38.058667 116.224 29.696 149.162667-16.042667 62.634667-69.290667 106.496-129.365333 106.496-36.352 0-69.290667-15.701333-95.232-44.714667-26.112 29.013333-59.050667 44.714667-95.232 44.714667-60.416 0-113.664-43.861333-129.706667-106.496z m204.970667 10.752c4.266667-6.997333 11.776-11.264 19.797333-11.264 8.021333 0 15.530667 4.266667 19.797333 11.264 19.456 31.914667 46.08 49.493333 75.434667 49.493333 38.570667 0 74.069333-30.208 84.650667-71.68 7.850667-30.378667 17.066667-136.874667-179.882667-248.149333C502.954667 188.757333 512.341333 295.253333 520.021333 325.461333c10.581333 41.472 46.08 71.68 84.48 71.68 29.525333 0 56.32-17.749333 75.605334-49.493333z"  horiz-adv-x="1365" />

    
    <glyph glyph-name="fangjian" unicode="&#58898;" d="M587.434667 872.448A64.853333 64.853333 0 0 1 531.626667 884.053333L96.256 774.314667a25.429333 25.429333 0 0 1-19.285333-24.746667v-768a25.6 25.6 0 0 1 21.162666-25.258667l438.101334-75.946666a62.805333 62.805333 0 0 1 11.264-1.024 64.682667 64.682667 0 0 1 64.853333 64.853333V821.248a64.682667 64.682667 0 0 1-24.917333 51.2z m-26.282667-928.426667a13.824 13.824 0 0 0-4.778667-10.410666 14.165333 14.165333 0 0 0-11.264-3.072L128.170667 2.901333V729.6l415.914666 104.789333a13.653333 13.653333 0 0 0 17.066667-13.141333zM440.832 444.586667a48.469333 48.469333 0 1 1 48.64-48.298667 48.469333 48.469333 0 0 1-48.64 48.298667zM882.517333 807.424H668.672a25.6 25.6 0 0 1 0-51.2h213.845333a13.653333 13.653333 0 0 0 13.653334-13.653333v-730.794667a13.482667 13.482667 0 0 0-13.653334-13.482667H668.672a25.6 25.6 0 0 1 0-51.2h213.845333a64.853333 64.853333 0 0 1 64.853334 64.682667V742.4a64.853333 64.853333 0 0 1-64.853334 65.024z"  horiz-adv-x="1024" />

    
    <glyph glyph-name="dairuzhu" unicode="&#59063;" d="M503.785739-31.766261H159.766261c-10.752 0-19.812174 9.505391-19.812174 20.791652V822.895304c0 11.286261 9.060174 20.791652 19.812174 20.791653h654.113391c10.729739 0 19.812174-9.505391 19.812174-20.791653V352.166957c17.519304-7.724522 34.504348-17.808696 49.775304-29.117218v0.601044c0.556522 0 0.556522-0.601043 1.113044-0.601044V854.416696C884.602435 877.545739 867.06087 896 845.022609 896H128.645565C106.585043 896 89.043478 877.568 89.043478 854.394435V-41.850435C89.043478-65.046261 106.585043-83.478261 128.667826-83.478261h411.336348a298.963478 298.963478 0 0 0-35.639652 52.313044h-0.578783v-0.601044z m213.882435 351.387826c-119.941565 0-217.266087-97.057391-217.266087-216.731826 0-119.652174 97.324522-216.731826 217.266087-216.731826 119.986087 0 217.288348 97.079652 217.288348 216.731826 0 119.652174-96.745739 216.731826-217.266087 216.731826z m0-382.107826c-91.648 0-165.776696 73.950609-165.776696 165.398261 0 91.425391 74.128696 165.353739 165.776696 165.353739 91.670261 0 165.798957-73.928348 165.798956-165.376 0-91.425391-74.128696-165.376-165.798956-165.376z m12.466087 265.839304h-49.797565v-163.661913h142.024347v49.64174h-92.226782v114.020173zM698.991304 710.878609H272.361739c-13.57913 0-24.887652-11.286261-24.887652-24.843131 0-13.534609 11.308522-24.82087 24.887652-24.820869h426.651826c13.57913 0 24.887652 11.286261 24.887652 24.820869 0 13.55687-11.308522 24.84313-24.887652 24.843131z m24.887653-178.354087c0 13.534609-11.308522 24.82087-24.887653 24.820869H272.361739c-13.57913 0-24.887652-11.286261-24.887652-24.820869 0-13.55687 11.308522-24.84313 24.887652-24.843131h426.651826c13.57913 0 24.887652 11.286261 24.887652 24.843131zM272.361739 403.812174c-13.57913 0-24.887652-11.286261-24.887652-24.843131 0-13.534609 11.308522-24.82087 24.887652-24.820869h273.875478c13.57913 0 24.887652 11.286261 24.887653 24.820869 0 13.55687-11.308522 24.84313-24.887653 24.843131H272.361739z"  horiz-adv-x="1024" />

    
    <glyph glyph-name="quanbudingdan1" unicode="&#58904;" d="M835.4 871.7h-74.9c-16.5 0-25-8.7-25-25.4s8.4-25.4 25-25.4h74.9c35.6 0 74.9-65.7 74.9-101.7v-711.8c0-36-39.2-76.3-74.9-76.3h-649c-38.1 4.3-74.9 25.4-74.9 76.3V719.1c0 36 39.2 101.7 74.9 101.7h74.9c16.5 0 25 8.7 25 25.4s-8.4 25.4-25 25.4h-74.9s-124.8 0-124.8-151.4v-713.1c0-74.5 44.5-127.2 126-127.2h646.6c81.5 0 126 43.7 126 127.2V720.3c0 151.4-124.8 151.4-124.8 151.4zM744.8 572.3H277c-14.4 0-26-11.9-26-26.5s11.6-26.5 26-26.5h467.7c14.4 0 26 11.9 26 26.5 0 14.7-11.6 26.5-25.9 26.5zM744.8 387.1H277c-14.4 0-26-11.9-26-26.5s11.6-26.5 26-26.5h467.7c14.4 0 26 11.9 26 26.5 0 14.7-11.6 26.5-25.9 26.5zM744.8 201.8H277c-14.4 0-26-11.8-26-26.5 0-14.6 11.6-26.5 26-26.5h467.7c14.4 0 26 11.9 26 26.5 0.1 14.7-11.6 26.5-25.9 26.5zM663.2 801.5H360.9c-21.7 0-39.4 17.7-39.4 39.4v2.4c0 21.7 17.7 39.4 39.4 39.4h302.3c21.7 0 39.4-17.7 39.4-39.4v-2.4c0.1-21.7-17.7-39.4-39.4-39.4z"  horiz-adv-x="1024" />

    
    <glyph glyph-name="rili" unicode="&#59237;" d="M902.4 704H704V761.6c0 3.2-3.2 6.4-6.4 6.4h-51.2c-3.2 0-6.4-3.2-6.4-6.4V704h-256V761.6c0 3.2-3.2 6.4-6.4 6.4h-51.2c-3.2 0-6.4-3.2-6.4-6.4V704H121.6c-12.8 0-25.6-12.8-25.6-25.6v-684.8c0-12.8 12.8-25.6 25.6-25.6h780.8c12.8 0 25.6 12.8 25.6 25.6V678.4c0 12.8-12.8 25.6-25.6 25.6zM864 32H160V416h704v-384zM160 480V640h160v-57.6c0-3.2 3.2-6.4 6.4-6.4h51.2c3.2 0 6.4 3.2 6.4 6.4V640h256v-57.6c0-3.2 3.2-6.4 6.4-6.4h51.2c3.2 0 6.4 3.2 6.4 6.4V640h160v-160H160z"  horiz-adv-x="1024" />

    
    <glyph glyph-name="-" unicode="&#58905;" d="M502.08 432a160 160 0 1 1-160 160 160 160 0 0 1 161.28-160z m3.84-64c-217.92-44.48-323.2-169.92-323.2-384a32 32 0 0 0-64 0c0 207.04 90.88 347.2 268.48 416a224 224 0 1 0 118.72-32zM598.4 192h16.32v-192h224v192h16.32l-128 112.32z m149.44 157.44l218.88-192a8 8 0 0 0 0-11.2 8 8 0 0 0-6.08-2.88h-73.92V0a48 48 0 0 0-48-48h-224a48 48 0 0 0-48 48v144h-74.88a8 8 0 0 0-5.12 14.08l218.88 192a32 32 0 0 0 42.24-0.64z"  horiz-adv-x="1024" />

    
    <glyph glyph-name="shipin1" unicode="&#59778;" d="M950.4 636.8c-22.4 9.6-48 3.2-64-12.8L768 528v48c0 54.4-41.6 96-96 96H128c-54.4 0-96-41.6-96-96v-384c0-54.4 41.6-96 96-96h544c54.4 0 96 41.6 96 96v51.2l118.4-96c19.2-16 41.6-22.4 64-12.8C976 144 992 169.6 992 201.6v368c0 28.8-16 54.4-41.6 67.2zM704 192c0-19.2-12.8-32-32-32H128c-19.2 0-32 12.8-32 32V576c0 19.2 12.8 32 32 32h544c19.2 0 32-12.8 32-32v-384z m224 6.4v-3.2L768 326.4V444.8L928 576v-377.6z"  horiz-adv-x="1024" />

    
    <glyph glyph-name="jishulianxidan" unicode="&#58906;" d="M682.25 430.738c0-16.695 11.115-27.811 27.81-27.811s27.812 11.116 27.812 27.811A167.395 167.395 0 0 1 570.96 597.65c-16.695 0-27.811-11.116-27.811-27.811s11.16-27.812 27.811-27.812a111.597 111.597 0 0 0 111.29-111.289z m111.289 0c0-16.695 11.115-27.811 27.81-27.811s27.812 11.116 27.812 27.811c0 152.984-125.217 278.201-278.2 278.201-16.696 0-27.812-11.16-27.812-27.855s11.16-27.811 27.811-27.811c122.405 0 222.579-100.174 222.579-222.535zM417.976 528.1c30.623 30.579 33.391 77.898 5.58 111.289L337.31 747.866c-27.811 36.16-80.666 41.74-116.869 13.928-2.768-2.812-5.536-2.812-5.536-5.58l-75.13-75.13c-72.318-72.318 30.623-267.041 217.042-453.417C543.15 41.292 735.06-58.88 807.378 10.67l75.13 75.13c33.392 33.391 33.392 86.246 0 116.825l-5.536 5.58-108.52 86.246c-33.348 27.81-80.623 25.043-111.246-5.58l-47.275-47.319c-50.087 30.623-94.593 64.014-133.564 102.941-38.927 38.971-72.275 83.478-102.898 133.565l44.507 50.043z m-38.927 75.13c8.348-11.16 8.348-27.855-2.812-36.203l-61.202-63.97a29.569 29.569 0 0 1-5.536-33.392 721.425 721.425 0 0 1 122.405-164.1 721.512 721.512 0 0 1 164.1-122.405 29.569 29.569 0 0 1 33.39 5.58l63.971 63.97c11.16 11.116 25.043 11.116 36.203 2.769l108.477-89.014s2.768 0 2.768-2.768a26.889 26.889 0 0 0 0-38.971l-75.13-75.13c-36.115-36.115-208.606 55.666-372.75 217.042-164.1 161.332-253.114 336.548-216.955 372.75l77.854 77.899c11.16 8.348 30.623 8.348 38.971-5.58l86.246-108.521z"  horiz-adv-x="1024" />

    
    <glyph glyph-name="daohang_wodefangyuan" unicode="&#58943;" d="M680.96 276.48c-5.12 0-10.24 5.12-15.36 5.12-10.24 0-15.36-5.12-20.48-10.24-10.24-10.24-5.12-30.72 5.12-35.84C691.2 204.8 716.8 153.6 716.8 102.4c0-15.36 10.24-25.6 25.6-25.6s25.6 10.24 25.6 25.6c-5.12 66.56-35.84 133.12-87.04 174.08z m15.36 143.36c0 81.92-66.56 148.48-148.48 148.48s-148.48-66.56-148.48-148.48c0-46.08 20.48-87.04 56.32-117.76-30.72-20.48-61.44-40.96-81.92-71.68-25.6-35.84-40.96-81.92-40.96-128 0-15.36 15.36-25.6 25.6-25.6 15.36 0 25.6 10.24 25.6 25.6 0 92.16 71.68 163.84 163.84 163.84 81.92 0 148.48 66.56 148.48 153.6zM547.84 512c51.2 0 97.28-40.96 97.28-97.28 0-51.2-40.96-97.28-97.28-97.28s-97.28 40.96-97.28 97.28c5.12 56.32 46.08 97.28 97.28 97.28zM819.2-51.2H281.6c-40.96 0-76.8 40.96-76.8 87.04V414.72c0 15.36 10.24 25.6 25.6 25.6s25.6-10.24 25.6-25.6v-384c0-20.48 10.24-35.84 25.6-35.84h537.6c15.36 0 25.6 15.36 25.6 35.84v384c0 15.36 10.24 25.6 25.6 25.6s25.6-10.24 25.6-25.6v-384c0-46.08-35.84-81.92-76.8-81.92zM962.56 450.56c-5.12 0-10.24 0-15.36 5.12L547.84 808.96 148.48 465.92c-10.24-10.24-25.6-10.24-35.84 0-10.24 10.24-10.24 25.6 0 35.84l409.6 358.4c10.24 10.24 25.6 10.24 35.84 0l419.84-368.64c10.24-10.24 10.24-25.6 0-35.84 0 0-5.12-5.12-15.36-5.12z"  horiz-adv-x="1024" />

    
    <glyph glyph-name="shanglv" unicode="&#58972;" d="M170.861714 673.889524h682.276572a102.180571 102.180571 0 0 0 102.204952-102.326857v-375.125334a102.375619 102.375619 0 0 0-102.204952-102.326857H170.861714a102.180571 102.180571 0 0 0-102.204952 102.326857V571.562667A102.375619 102.375619 0 0 0 170.861714 673.889524zM0.438857 196.437333a170.398476 170.398476 0 0 1 170.422857-170.520381h682.276572c94.012952 0 170.422857 76.385524 170.422857 170.520381V571.562667a170.398476 170.398476 0 0 1-170.422857 170.520381H170.861714c-94.012952 0-170.422857-76.385524-170.422857-170.520381v-375.125334z m613.863619 0a34.108952 34.108952 0 1 1 68.217905 0V571.562667a34.108952 34.108952 0 0 1-68.217905 0v-375.125334z m-136.411428 68.193524a34.108952 34.108952 0 1 1 68.217904 0v306.956191a34.108952 34.108952 0 1 1-68.217904 0v-306.956191z m-136.411429 68.217905a34.108952 34.108952 0 0 1 68.217905 0v238.713905a34.108952 34.108952 0 1 1-68.217905 0v-238.713905z m-68.217905-460.409905a119.369143 119.369143 0 0 1 119.369143 119.369143h-68.193524a51.151238 51.151238 0 1 0-102.326857 0H153.916952a119.369143 119.369143 0 0 1 119.344762-119.369143z m477.476572 0a119.369143 119.369143 0 0 1 119.344762 119.369143H801.889524a51.151238 51.151238 0 0 0-102.326857 0h-68.193524a119.369143 119.369143 0 0 1 119.369143-119.369143z m-51.175619 869.668572V784.700952c0 23.698286-19.090286 42.617905-42.666667 42.617905H367.104a42.666667 42.666667 0 0 1-42.666667-42.617905v-42.642285m-68.217904 0V784.725333A110.86019 110.86019 0 0 0 367.104 895.561143h289.792a110.762667 110.762667 0 0 0 110.884571-110.83581v-42.642285H256.219429z"  horiz-adv-x="1024" />

    
    <glyph glyph-name="fangyuan" unicode="&#58926;" d="M515.072 117.76c-7.68 0-14.848 2.048-21.504 6.144-117.76 73.728-134.656 136.192-136.192 159.232-0.512 3.584-0.512 7.168-0.512 10.752 0 57.344 46.592 103.936 103.424 103.936 19.456 0 38.912-5.632 55.296-15.872 16.384 10.24 35.84 15.872 55.296 15.872 56.832 0 103.424-46.592 103.424-103.936 0-3.072 0-6.656-0.512-10.24-1.536-29.184-22.016-88.064-136.192-160.256-7.168-3.584-14.848-5.632-22.528-5.632z m-55.296 252.416c-41.472 0-75.264-34.304-75.264-75.776 0-2.56 0-5.632 0.512-8.192 1.024-11.264 10.24-67.584 123.392-138.24 4.096-2.56 9.216-2.56 13.312 0 111.104 70.144 122.368 123.392 123.392 138.24v0.512c0.512 2.56 0.512 5.12 0.512 7.68 0 41.984-33.792 75.776-75.264 75.776-16.896 0-33.28-5.632-46.592-16.384l-8.704-6.656-8.704 6.656c-13.312 10.752-29.696 16.384-46.592 16.384zM769.536-25.088H260.608c-41.472 0-75.776 33.792-75.776 75.776V461.312c0 11.776 9.216 20.992 20.992 20.992s20.992-9.216 20.992-20.992v-410.624c0-18.432 14.848-33.28 33.28-33.28h508.928c18.432 0 33.28 14.848 33.28 33.28V461.312c0 11.776 9.216 20.992 20.992 20.992s20.992-9.216 20.992-20.992v-410.624c0.512-41.472-33.28-75.776-74.752-75.776zM936.448 334.336c-5.632 0-10.752 2.048-14.848 6.144L509.952 752.64l-401.408-401.408c-8.192-8.192-21.504-8.192-29.696 0s-8.192 21.504 0 29.696l416.256 416.256c8.192 8.192 21.504 8.192 29.696 0l426.496-426.496c8.192-8.192 8.192-21.504 0-29.696-4.096-4.608-9.216-6.656-14.848-6.656z"  horiz-adv-x="1024" />

    
    <glyph glyph-name="dingwei" unicode="&#59313;" d="M512-33.6c-4.4 0-8.7 1.4-12.4 4.3-3.2 2.5-79.4 63.1-156.8 154.7-45.7 54.1-82.1 107.8-108.4 159.5-33.3 65.8-50.2 128.9-50.2 187.4 0 87.9 34.1 170.6 96 232.7 61.9 62.2 144.2 96.5 231.8 96.5s169.9-34.3 231.8-96.5c61.9-62.2 96-144.8 96-232.7 0-56.6-16.9-118.4-50.3-183.8-26.2-51.3-62.6-105.1-108.3-159.8-77.3-92.6-153.4-155.2-156.6-157.8-3.6-3-8.1-4.5-12.6-4.5z m0 795.3c-76.9 0-149.2-30.1-203.5-84.7-54.4-54.7-84.3-127.3-84.3-204.6 0-52.2 15.5-109.2 45.9-169.4 24.8-49 59.6-100.1 103.3-151.8 56.7-67.2 113.8-117.9 138.5-138.7 24.6 21.5 82.3 74.1 139.2 142.4 43.6 52.3 78.3 103.5 103.1 152.2 30.4 59.6 45.8 115.2 45.8 165.4 0 77.3-30 150-84.3 204.6-54.5 54.5-126.8 84.6-203.7 84.6z m6.5-448.9c-85.3 0-154.7 69.3-154.7 154.6s69.4 154.7 154.7 154.7c85.2 0 154.6-69.4 154.6-154.7-0.1-85.3-69.4-154.6-154.6-154.6z m0 269.4c-63.3 0-114.8-51.5-114.8-114.8 0-63.2 51.5-114.7 114.8-114.7 63.2 0 114.7 51.4 114.7 114.7-0.1 63.3-51.5 114.8-114.7 114.8z"  horiz-adv-x="1024" />

    
    <glyph glyph-name="dui1" unicode="&#58968;" d="M419.6 153c-8.1 0-16.2 3.1-22.4 9.2l-216.6 213c-12.6 12.4-12.8 32.7-0.4 45.3 12.4 12.6 32.7 12.8 45.3 0.4l194-190.8 378.9 375.7c12.6 12.4 32.8 12.4 45.3-0.2 12.4-12.5 12.4-32.8-0.2-45.3l-401.4-398c-6.2-6.2-14.4-9.3-22.5-9.3z"  horiz-adv-x="1024" />

    
    <glyph glyph-name="guanbi" unicode="&#58897;" d="M512-88.5C251-88.5 39.5 123 39.5 384S251 856.5 512 856.5 984.5 645 984.5 384 773-88.5 512-88.5z m0 900c-235.5 0-427.5-192-427.5-427.5s192-427.5 427.5-427.5 427.5 192 427.5 427.5S747.5 811.5 512 811.5zM546.5 384l183 183c9 9 9 24 0 34.5L728 603c-9 9-24 9-33 0L512 418.5l-183 183c-9 9-24 9-33 0l-1.5-1.5c-9-9-9-24 0-34.5l183-181.5-183-183c-9-9-9-24 0-34.5l1.5-1.5c9-9 24-9 33 0l183 184.5 183-183c9-9 24-9 33 0l1.5 1.5c9 9 9 24 0 34.5L546.5 384z"  horiz-adv-x="1024" />

    
    <glyph glyph-name="guanbi1" unicode="&#58892;" d="M753.402 136.243a19.594 19.594 0 0 0-13.85 5.744L267.747 613.792a19.553 19.553 0 1 0 27.7 27.7l471.846-471.845a19.635 19.635 0 0 0-13.891-33.404M281.597 136.243a19.553 19.553 0 0 0-13.85 33.445l471.845 471.805a19.594 19.594 0 0 0 27.66-27.7L295.447 141.986a19.553 19.553 0 0 0-13.85-5.744"  horiz-adv-x="1024" />

    
    <glyph glyph-name="normal" unicode="&#59095;" d="M342.464 403.712l299.072 231.04a24.896 24.896 0 0 0 40.128-19.712v-462.144a24.96 24.96 0 0 0-40.128-19.712L342.4 364.224a24.96 24.96 0 0 0 0 39.488"  horiz-adv-x="1024" />

    
    <glyph glyph-name="you-" unicode="&#59185;" d="M428.429709 605.875789L645.459716 407.407904a31.237297 31.237297 0 0 0 0-46.924059L428.429709 162.013527A36.808001 36.808001 0 0 0 366.482994 185.474948V582.248949a36.818948 36.818948 0 0 0 61.946715 23.62684z m0 0"  horiz-adv-x="1024" />

    
    <glyph glyph-name="jia" unicode="&#58933;" d="M512 832.968431c-247.958348 0-448.968431-201.010083-448.968431-448.968431 0-247.957325 201.010083-448.968431 448.968431-448.968431s448.968431 201.011106 448.968431 448.968431C960.968431 631.959372 759.958348 832.968431 512 832.968431zM512-31.295518c-229.361805 0-415.295518 185.933713-415.295518 415.295518s185.934736 415.295518 415.295518 415.295518 415.296541-185.933713 415.296541-415.295518S741.360781-31.295518 512-31.295518zM545.672914 563.587168 478.327086 563.587168 478.327086 417.672914 332.412832 417.672914 332.412832 350.327086 478.327086 350.327086 478.327086 204.412832 545.672914 204.412832 545.672914 350.327086 691.587168 350.327086 691.587168 417.672914 545.672914 417.672914Z"  horiz-adv-x="1024" />

    
    <glyph glyph-name="nuanqi" unicode="&#58916;" d="M612 294.48 612 694.4c0 55.14-44.86 100-100 100s-100-44.86-100-100l0-401.36c-50.84-29.12-80-85.22-80-156.84 0-99.26 80.76-180 180-180 99.26 0 180 80.74 180 180C692 210.54 663.52 265.94 612 294.48zM512-3.8c-77.2 0-140 62.82-140 140 0 35.7 8.88 99.68 68.34 127.04 8.06 3.7 12.22 12.08 11.26 20.44C451.68 284.34 452 694.4 452 694.4c0 33.08 26.92 60 60 60s60-26.92 60-60c0 0 0.24-409.7 0.28-410.18-0.68-8.26 3.64-16.38 11.64-19.92C640.18 239.48 652 180.92 652 136.2 652 59 589.18-3.8 512-3.8zM692 325.32 692 716c0 99.24-80.74 180-180 180C412.76 896 332 815.24 332 716l0-389.4c-52.2-44.48-80-111.34-80-194.62 0-143.36 116.64-260 260-260 143.36 0 260 116.64 260 260C772 218.64 745.58 281.86 692 325.32zM512-88c-121.3 0-220 98.7-220 220 0 50.54 12.2 119.4 67.56 165.52 6.94 2.84 11.74 9.48 12.22 17.32C371.78 314.94 372 716 372 716c0 77.2 62.8 140 140 140 77.18 0 140-62.8 140-140l0-400c0-0.52 0.24-5 2.36-8.94s5.4-6.86 5.82-7.16C709.16 263.92 732 210.56 732 132 732 10.68 633.3-88 512-88z"  horiz-adv-x="1024" />

    
    <glyph glyph-name="yundou" unicode="&#58924;" d="M92.435692 193.417846l846.769231 0c10.889846 0 19.692308 8.802462 19.692308 19.692308 0 168.605538-83.456 230.104615-87.020308 232.625231-3.347692 2.382769-7.345231 3.662769-11.441231 3.662769L430.769231 449.398154c-3.741538 1.555692-9.117538 4.273231-9.531077 7.384615-2.304 17.427692 42.043077 60.928 85.070769 91.076923l373.819077 0c43.441231 0 78.769231 35.328 78.769231 78.769231s-35.328 78.769231-78.769231 78.769231l-472.615385 0c-0.571077 0-1.024-0.275692-1.575385-0.315077-0.551385-0.039385-1.063385 0.157538-1.614769 0.059077C150.764308 663.492923 76.071385 234.614154 73.019077 216.359385c-0.945231-5.710769 0.649846-11.559385 4.391385-15.990154C81.152 195.977846 86.646154 193.417846 92.435692 193.417846zM409.481846 666.033231l470.646154 0c21.720615 0 39.384615-17.664 39.384615-39.384615s-17.664-39.384615-39.384615-39.384615l-374.153846 0c-0.708923 0-1.319385-0.334769-2.008615-0.413538-4.982154 1.004308-10.338462 0.098462-14.887385-2.993231-26.781538-18.136615-113.624615-81.309538-106.870154-132.214154 1.713231-13.016615 9.826462-30.621538 38.577231-40.546462 2.067692-0.708923 4.233846-1.083077 6.419692-1.083077l426.141538 0c14.788923-13.489231 60.790154-64.354462 65.673846-177.230769L116.420923 232.782769C135.286154 320.787692 215.591385 632.891077 409.481846 666.033231zM939.204923 154.033231l-876.307692 0-19.692308-78.769231c0 0 889.442462 0 935.384615 0C991.291077 98.107077 939.204923 154.033231 939.204923 154.033231zM683.204923 331.264m-19.692308 0a1 1 0 1 0 39.384615 0 1 1 0 1 0-39.384615 0ZM801.358769 331.264m-19.692308 0a1 1 0 1 0 39.384615 0 1 1 0 1 0-39.384615 0Z"  horiz-adv-x="1024" />

    
    <glyph glyph-name="diannao" unicode="&#58890;" d="M988.304 805.875H171.773c-45.077-0.05-81.605-36.581-81.65-81.654v-544.348c0.05-45.073 36.576-81.599 81.644-81.65h381.051v-81.659H416.731c-15.031-0.003-27.216-12.188-27.216-27.219s12.185-27.218 27.215-27.219h326.617c15.031 0.003 27.216 12.188 27.216 27.219s-12.185 27.217-27.215 27.219H607.261v81.65h381.045c45.077 0.05 81.605 36.581 81.65 81.654V724.216c-0.045 45.078-36.572 81.609-81.644 81.659z m-816.529-54.44h816.531c15.028-0.011 27.207-12.191 27.219-27.218V261.52h-870.96V724.215c0.011 15.025 12.186 27.203 27.207 27.219z m816.529-598.783H171.773c-15.028 0.011-27.207 12.191-27.219 27.218v27.211h870.96v-27.219c-0.017-15.022-12.188-27.193-27.209-27.21z"  horiz-adv-x="1189" />

    
    <glyph glyph-name="quan" unicode="&#59109;" d="M341.3 458.7H384v-149.3h-42.7V458.7z m554.7-8.6c-35.3 0-64-28.7-64-64s28.7-64 64-64h21.3v-204.8c0-35.3-28.7-64-64-64H170.7c-35.3 0-64 28.7-64 64V322.1H128c6.4 0 12.7 0.9 18.6 2.8 26.7 8.1 45.4 32.9 45.4 61.2 0 27.8-17.8 52.1-43.8 60.7-6.5 2.2-13.3 3.3-20.2 3.3h-21.3V650.7c0 35.3 28.7 64 64 64h682.7c35.3 0 64-28.7 64-64v-200.5H896z m-21.3 200.6c0 11.8-9.6 21.3-21.3 21.3H170.7c-11.8 0-21.3-9.6-21.3-21.3v-160c4.2-0.9 8.3-2 12.4-3.3 43.2-14.4 72.9-55 72.9-101.2 0-47.3-31-88.5-75.6-102.1-3.2-1-6.4-1.8-9.7-2.5v-164.3c0-11.8 9.6-21.3 21.3-21.3h682.7c11.8 0 21.3 9.6 21.3 21.3V281.6c-48.7 9.9-85.3 52.9-85.3 104.5s36.6 94.7 85.3 104.5V650.7zM341.3 224H384v-128h-42.7V224z m0 448H384v-128h-42.7V672z"  horiz-adv-x="1024" />

    
    <glyph glyph-name="xiaoxi1" unicode="&#58961;" d="M869.376 748.544H236.544c-51.712 0-89.6-39.936-89.6-95.232V189.44c0-53.248 35.84-89.088 89.6-89.088h181.248l114.688-111.104c6.144-6.144 14.336-9.216 22.528-9.216s16.384 3.072 22.528 9.216l112.128 111.104h179.712c53.248 0 89.088 35.84 89.088 89.088V652.8c0 55.296-37.376 95.744-89.088 95.744z m43.008-572.928c0-19.456-3.072-27.136-22.016-27.136H687.616c-9.216 0-17.92-3.072-24.576-9.728L558.08 35.328l-107.52 103.424c-6.656 6.656-15.872 10.24-24.576 9.728H222.208c-19.456 0-27.648 8.192-27.648 27.136V664.576c0 10.24 2.56 33.792 27.648 33.792l663.552 4.096c24.576 0 31.232-27.648 31.232-37.376l-3.584-485.376-1.024-4.096zM321.536 419.84c0-28.16 22.528-50.688 50.688-50.688s50.688 22.528 50.688 50.688-22.528 50.688-50.688 50.688-50.688-22.528-50.688-50.688zM502.784 419.84c0-28.16 22.528-50.688 50.688-50.688s50.688 22.528 50.688 50.688-22.528 50.688-50.688 50.688-50.688-22.528-50.688-50.688zM682.496 420.352c0-28.16 22.528-50.688 50.688-50.688s50.688 22.528 50.688 50.688-22.528 50.688-50.688 50.688c-27.648 0.512-50.688-22.528-50.688-50.688z"  horiz-adv-x="1024" />

    
    <glyph glyph-name="dianhua" unicode="&#58941;" d="M418.45 528.119c30.34 30.34 32.869 78.38 5.056 111.249l-85.965 108.72c-27.813 36.663-80.909 41.72-116.306 13.907-2.529-2.528-5.057-2.528-5.057-5.057l-75.852-75.852c-72.06-72.059 30.34-266.745 217.442-453.846 185.837-185.838 376.73-285.71 450.054-216.178l74.588 74.587c32.869 32.87 32.869 85.966 0 116.307l-5.057 5.056-108.72 85.966c-32.87 27.812-80.91 25.284-111.25-5.057l-46.776-46.775c-50.567 30.34-94.814 64.474-134.005 102.4-39.19 39.19-72.059 83.437-102.4 134.005l44.247 50.568z m-39.19 74.587c8.849-11.378 8.849-27.812-2.53-36.662l-60.68-64.474c-8.85-8.849-11.378-22.755-5.057-32.869C343.862 408.02 385.58 353.66 433.62 304.356c48.04-48.04 103.664-89.758 164.345-122.628 11.378-5.056 24.02-2.528 32.87 5.057l64.474 64.474c11.377 11.378 25.284 11.378 36.661 2.529l108.721-88.494s2.529 0 2.529-2.529c11.378-10.113 11.378-27.812 1.264-37.925 0 0 0-1.265-1.264-1.265l-77.116-74.587c-36.662-36.662-208.593 55.624-372.939 217.442-164.345 161.817-252.84 336.276-217.442 372.938l78.38 78.38c11.378 8.85 30.341 8.85 39.19-5.057l85.966-109.985z"  horiz-adv-x="1024" />

    
    <glyph glyph-name="nuanqi1" unicode="&#58955;" d="M507.7504 119.4752c-140.8 0-256 115.2-256 256s115.2 256 256 256 256-115.2 256-256-115.2-256-256-256z m0 469.3248c-119.4752 0-213.3248-93.8752-213.3248-213.3248 0-119.4752 93.8496-213.3504 213.3248-213.3504s213.3248 93.8752 213.3248 213.3504c0 115.2-93.8496 213.3248-213.3248 213.3248z m0 115.2c-12.8 0-21.3248 8.5248-21.3248 21.3248v128c0 12.8 8.5248 21.3504 21.3248 21.3504 12.8 0 21.3248-8.5504 21.3248-21.3504v-128c0-8.5248-8.5248-21.3248-21.3248-21.3248z m0-806.4c-12.8 0-21.3248 8.5248-21.3248 21.3248v128c0 12.8 8.5248 21.3504 21.3248 21.3504 12.8 0 21.3248-8.5504 21.3248-21.3504v-128c0-12.8-8.5248-21.3248-21.3248-21.3248z m469.3248 469.3248h-128c-12.8 0-21.3248 8.5504-21.3248 21.3504 0 12.8 8.5248 21.3248 21.3248 21.3248h128c12.8 0 21.3504-8.5248 21.3504-21.3248 0-12.8-8.5504-21.3504-21.3504-21.3504z m-806.4 0h-128c-12.8 0-21.3248 8.5504-21.3248 21.3504 0 12.8 8.5248 21.3248 21.3248 21.3248h128c12.8 0 21.3504-8.5248 21.3504-21.3248 0-12.8-12.8-21.3504-21.3504-21.3504zM750.9504 605.8752c-4.2752 0-12.8 0-17.0752 4.2496a20.6336 20.6336 0 0 0 0 29.8752l89.6 89.6a20.6336 20.6336 0 0 0 29.8752 0 20.6336 20.6336 0 0 0 0-29.8752l-89.6-89.6c-4.2752 0-8.5248-4.2496-12.8-4.2496zM179.2256 34.1248c-4.2752 0-12.8 0-17.0752 4.2752a20.6336 20.6336 0 0 0 0 29.8752l89.6 89.6a20.6336 20.6336 0 0 0 29.8752 0A20.6336 20.6336 0 0 0 281.6 128l-89.6-89.6c-4.2752-4.2752-8.5504-4.2752-12.8-4.2752zM840.5504 34.1248c-4.2752 0-12.8 0-17.0752 4.2752l-89.6 89.6a20.6336 20.6336 0 0 0 0 29.8752 20.6336 20.6336 0 0 0 29.8752 0l89.6-89.6a20.6336 20.6336 0 0 0 0-29.8752c0-4.2752-8.5248-4.2752-12.8-4.2752zM268.8256 605.8752c-4.2752 0-12.8 0-17.0752 4.2496L162.1504 704a20.6336 20.6336 0 0 0 0 29.8752 20.6336 20.6336 0 0 0 29.8752 0l89.6-89.6A20.6336 20.6336 0 0 0 281.6 614.4c0-4.2752-8.5504-8.5248-12.8-8.5248z"  horiz-adv-x="1024" />

    
    <glyph glyph-name="up" unicode="&#58885;" d="M172.56 289.557l332.531 339.404 332.535-339.404-25.83-26.381-306.705 313.135-306.705-313.135-25.826 26.381zM172.56 289.557z"  horiz-adv-x="1024" />

    
    <glyph glyph-name="xia" unicode="&#58994;" d="M529.403 219.725c6.502 0 12.288 3.071 16.024 7.834L831.38 513.458c3.687 3.687 5.938 8.807 5.938 14.439 0 11.264-9.113 20.377-20.377 20.377-5.632 0-10.752-2.252-14.438-5.99L529.249 269.081 256.046 542.284a20.4 20.4 0 0 1-14.438 5.99c-11.265 0-20.377-9.113-20.377-20.377 0-5.632 2.304-10.701 5.989-14.439l288.513-288.512v0.103c3.583-3.327 8.396-5.324 13.67-5.324z"  horiz-adv-x="1024" />

    
    <glyph glyph-name="yijia" unicode="&#59647;" d="M926.9 179.7c-40.1 27.4-342 211.2-398.1 245.3v57.8c54 8.2 95.5 54.9 95.5 111.2 0 62-50.5 112.4-112.5 112.4S399.4 656 399.4 594c0-9.6 1.2-19.1 3.6-28.4 2.3-9.1 11.6-14.5 20.7-12.2 9.1 2.3 14.6 11.6 12.2 20.7-1.7 6.5-2.5 13.2-2.5 19.9 0 43.3 35.2 78.5 78.5 78.5s78.5-35.2 78.5-78.5-35.2-78.5-78.5-78.5c-9.4 0-17-7.6-17-17V425c-47.2-28.7-357.3-217.3-398.1-245.3-26.2-17.9-38-46.3-30-72.1 6.9-22.4 31.2-46.3 78.7-46.3h732.8c47.5 0 71.7 23.9 78.7 46.3 7.9 25.9-3.9 54.2-30.1 72.1z m-2.5-62.1c-4.3-13.8-22-22.3-46.2-22.3H145.4c-24.2 0-41.9 8.6-46.2 22.3-3.6 11.5 2.8 24.6 16.7 34 39.2 26.8 345.2 213 396 243.8 58.2-35.4 356.7-217 395.8-243.8 13.9-9.4 20.2-22.5 16.7-34z"  horiz-adv-x="1024" />

    
    <glyph glyph-name="you" unicode="&#58886;" d="M700.539 376.915L409.275 668.178a25.658 25.658 0 0 1-18.21 7.547c-14.226 0-25.763-11.53-25.763-25.756a25.675 25.675 0 0 1 7.547-18.214l275.986-275.99L381.71 88.59a24.349 24.349 0 0 1-6.867-17.01c0-13.513 10.957-24.476 24.476-24.476a24.405 24.405 0 0 1 17.014 6.88l276.96 276.96a24.08 24.08 0 0 1 6.557 12.726c-0.534-3.422 0.2-3.863 0.69-3.133a25.66 25.66 0 0 1 7.523 18.19c0 7.097-2.873 13.53-7.523 18.19v-0.003z m0 0"  horiz-adv-x="1040" />

    
    <glyph glyph-name="triangle-down-small" unicode="&#58888;" d="M318.05461875 516.20955868l183.21097111-269.60482273a12.96426345 12.96426345 0 0 1 21.46882028 0L705.94538125 516.20955868a12.96426345 12.96426345 0 0 1-10.70848163 20.25017951H328.76310039a12.96426345 12.96426345 0 0 1-10.70848164-20.25017952z"  horiz-adv-x="1024" />

    
    <glyph glyph-name="shang" unicode="&#59104;" d="M523.733333 531.914667l213.333334-284.448A21.333333 21.333333 0 0 0 720 213.333333H293.333333a21.333333 21.333333 0 0 0-17.066666 34.133334l213.333333 284.448a21.333333 21.333333 0 0 0 34.133333 0z"  horiz-adv-x="1024" />

    
    <glyph glyph-name="bangzhu" unicode="&#58937;" d="M512.00256 383.86944M524.66688 328.76416M289.92 493.44l450.56 0 0 0-450.56 0 0 0ZM798.08128 655.47136c-16.25728 33.792-39.25632 64.39424-68.35712 90.95552-28.93056 26.40512-62.15296 47.22944-98.74688 61.89568C592.8384 823.6096 553.02912 831.36 512.65408 831.36c-40.36096 0-80.15744-7.70048-118.28352-22.88768-36.59136-14.57664-69.81504-35.27552-98.74688-61.52192-29.11488-26.4128-52.12672-56.84736-68.39424-90.4576-17.1456-35.42272-25.83936-72.47104-25.83936-110.11584 0-43.35872 5.24032-106.16832 30.20672-159.17056 26.33856-55.92064 71.35744-106.9504 122.35008-139.34976l0-167.95008c0-2.85056 0.2304-5.72288 0.6848-8.56064 3.55456-37.09696 21.4528-71.38816 50.49472-96.68352 29.09696-25.344 66.82624-39.30112 106.23488-39.30112 37.696 0 74.1888 12.91648 102.75328 36.36864 27.95136 22.9504 46.53184 54.39872 52.52864 88.79872 1.6896 5.29792 2.54336 10.79936 2.54336 16.39936L669.18656 246.34112c45.13408 28.91264 87.8464 75.8976 116.41728 128.6592 31.64288 58.28992 38.2848 124.5248 38.2848 169.824C823.88992 582.64704 815.2064 619.87456 798.08128 655.47136zM511.36128-8.32c-40.98944 0-77.02528 23.15008-92.71424 56.32l185.45024 0C588.3648 14.67648 552.19072-8.32 511.36128-8.32zM612.86784 104.32 410.26688 104.32l0 56.32 202.60096 0L612.86784 104.32zM736.09344 401.8432c-26.70208-49.31072-67.2896-92.22016-108.57088-114.78144l-14.65472-8.00896L612.86784 216.96 410.26688 216.96l0 63.50592-14.52544 8.03712c-46.21952 25.57568-89.59232 72.59136-113.19296 122.7008-20.52864 43.58144-24.83712 97.5616-24.83712 135.17184 0 57.28256 27.61088 115.18592 75.75424 158.85952C382.36288 749.59872 447.67616 775.04 512.65408 775.04c64.93568 0 130.21568-25.59104 179.10272-70.21184 48.18048-43.97568 75.81312-102.29504 75.81312-160.00512C767.56992 506.048 762.11072 449.77152 736.09344 401.8432zM604.7744 696.05888c-17.7088 18.33728-41.39776 29.23008-70.40896 32.37632-41.92256 4.53888-83.4624-14.77504-106.02752-35.93728-15.81056-14.82752-35.68384-43.46624-40.58112-95.6928l56.07424-5.25696c2.49984 26.66368 10.89664 48.48512 23.03488 59.86944 12.82816 12.02944 38.71744 23.4816 61.42976 21.02528 29.28384-3.17568 44.76928-17.50144 51.77728-47.904 5.07136-21.9968-7.89376-46.02368-19.20384-54.91072-34.2528-26.92096-53.50016-47.87456-64.3584-70.06464-11.14496-22.77376-12.02944-43.6608-12.02944-68.60032l0-39.77984 56.32 0L540.80128 430.9632c0 21.8432 0.87552 32.76416 6.2976 43.84512 6.79936 13.89312 21.78048 29.48096 48.57216 50.53824 27.37536 21.51424 49.65888 66.84032 39.28192 111.84512C629.40416 661.26336 619.24992 681.0688 604.7744 696.05888zM484.4928 334.86336l56.32 0 0-56.32-56.32 0 0 56.32Z"  horiz-adv-x="1024" />

    
    <glyph glyph-name="anquanzhongxin" unicode="&#58902;" d="M827.527768 703.086315c-154.315598 0-299.538097 109.696378-300.957423 110.979604-13.244652 11.975752-29.938869 17.926278-46.645366 17.926278-16.673751 0-33.330106-5.949502-46.570665-17.811668-2.181689-1.934049-145.906068-111.094214-301.019845-111.094214-38.406728 0-69.532633-31.035854-69.532633-69.305459l0-189.039447c0-189.767018 112.88193-312.146253 377.407606-495.66087 11.936867-8.295943 25.827225-12.428054 39.715537-12.428054 13.884218 0 27.774577 4.131087 39.709397 12.428054 264.546142 183.514617 377.408629 305.893852 377.408629 495.66087L897.043005 633.780857C897.041982 672.050462 865.915054 703.086315 827.527768 703.086315L827.527768 703.086315zM827.527768 444.741409c0-139.706879-69.515237-245.871827-347.602789-438.782442C201.82617 198.869582 132.334469 305.034531 132.334469 444.741409L132.334469 633.780857c185.386244 0 347.59051 128.942721 347.59051 128.942721s162.197102-128.942721 347.602789-128.942721L827.527768 444.741409 827.527768 444.741409zM625.430934 401.226337c0-4.532223-5.498224-8.206916-12.279674-8.206916L346.693582 393.019421c-6.78145 0-12.279674 3.674693-12.279674 8.206916l0 48.415686c0 4.532223 5.498224 8.206916 12.279674 8.206916l266.457678 0c6.78145 0 12.279674-3.674693 12.279674-8.206916L625.430934 401.226337zM455.394283 285.783071c-4.5312 0-8.204869 5.498224-8.204869 12.279674L447.189414 564.5194c0 6.78145 3.672646 12.279674 8.204869 12.279674l48.400337 0c4.5312 0 8.204869-5.498224 8.204869-12.279674l0-266.456654c0-6.78145-3.673669-12.279674-8.204869-12.279674L455.394283 285.783071z"  horiz-adv-x="1024" />

    
    <glyph glyph-name="9dituicon" unicode="&#58920;" d="M671 832l-331.5-64-307.5 64v-800l311-96 339 64 310-64v832l-321 64zM384 711.409l256 49.424v-703.632l-256-48.33v702.538zM96 753.308l224-46.621v-696.608l-224 69.145v674.084zM928 14.562l-224 46.245v699.354l224-44.66v-700.939z"  horiz-adv-x="1024" />

    
    <glyph glyph-name="dianti" unicode="&#58907;" d="M964.824615 813.725538l0 39.384615-905.846154 0 0-39.384615 78.769231 0 0-866.461538-78.769231 0 0-39.384615 905.846154 0 0 39.384615-78.769231 0 0 866.461538L964.824615 813.725538zM177.132308-52.736l0 866.461538 315.076923 0 0-866.461538L177.132308-52.736zM846.670769-52.736l-315.076923 0 0 866.461538 315.076923 0L846.670769-52.736zM705.220923 255.133538 802.934154 350.404923 776.231385 376.418462 726.232615 327.68 726.232615 538.013538 685.705846 538.013538 685.705846 329.728 639.251692 374.980923 610.599385 347.076923ZM429.961846 446.070154 335.36 538.013538 237.627077 442.722462 264.329846 416.708923 314.328615 465.467077 314.328615 255.133538 354.855385 255.133538 354.855385 463.399385 401.309538 418.166154Z"  horiz-adv-x="1024" />

    
    <glyph glyph-name="xifashui" unicode="&#58923;" d="M669.44 656.187077l-315.076923 0c-65.260308 0-118.153846-52.893538-118.153846-118.153846l0-512c0-65.260308 52.893538-118.153846 118.153846-118.153846l315.076923 0c65.260308 0 118.153846 52.893538 118.153846 118.153846l0 512C787.593846 603.293538 734.700308 656.187077 669.44 656.187077zM748.209231 26.033231c0-43.441231-35.328-78.769231-78.769231-78.769231l-315.076923 0c-43.441231 0-78.769231 35.328-78.769231 78.769231l0 512c0 43.441231 35.328 78.769231 78.769231 78.769231l315.076923 0c43.441231 0 78.769231-35.328 78.769231-78.769231L748.209231 26.033231zM689.132308 518.340923l-354.461538 0c-10.870154 0-19.692308-8.822154-19.692308-19.692308s8.822154-19.692308 19.692308-19.692308l354.461538 0c10.889846 0 19.692308 8.822154 19.692308 19.692308S700.022154 518.340923 689.132308 518.340923zM630.055385 754.648615c0 54.390154-44.091077 98.461538-98.461538 98.461538l-39.384615 0c-54.370462 0-98.461538-44.071385-98.461538-98.461538l0-59.076923 236.307692 0L630.055385 754.648615zM590.670769 734.956308l-157.538462 0 0 19.692308c0 32.571077 26.505846 59.076923 59.076923 59.076923l39.384615 0c32.571077 0 59.076923-26.505846 59.076923-59.076923L590.670769 734.956308z"  horiz-adv-x="1024" />

    
    <glyph glyph-name="xue" unicode="&#58880;" d="M905.309 192.083l-121.741 70.288 111.627 34.878c16.183 5.056 25.203 22.275 20.147 38.458-5.055 16.183-22.273 25.204-38.458 20.147l-165.607-51.745-137.878 79.604 135.134 78.020 168.351-52.602c3.048-0.953 6.132-1.406 9.165-1.405 13.071 0 25.189 8.417 29.293 21.552 5.056 16.184-3.963 33.402-20.147 38.458l-114.371 35.736 123.427 71.261c14.683 8.478 19.714 27.253 11.236 41.936s-27.253 19.714-41.935 11.237l-121.74-70.287 25.607 114.11c3.714 16.544-6.688 32.964-23.231 36.676-16.552 3.715-32.965-6.689-36.676-23.232l-37.991-169.292-137.646-79.47 0 155.412 129.499 119.282c12.471 11.487 13.268 30.908 1.781 43.379-11.486 12.471-30.906 13.267-43.379 1.782l-87.901-80.966-0 127.972c0 16.954-13.745 30.699-30.699 30.699s-30.699-13.745-30.699-30.699v-126.451l-86.25 79.445c-12.47 11.487-31.893 10.689-43.379-1.782-11.487-12.471-10.689-31.892 1.782-43.379l127.846-117.761v-155.983l-135.386 78.165-37.991 169.291c-3.713 16.544-20.136 26.945-36.676 23.232-16.544-3.713-26.945-20.133-23.232-36.676l25.607-114.109-122.349 70.639c-14.685 8.477-33.459 3.446-41.935-11.237-8.478-14.683-3.446-33.458 11.236-41.936l124.036-71.612-114.371-35.736c-16.183-5.056-25.203-22.274-20.147-38.458 4.104-13.135 16.22-21.552 29.293-21.552 3.032 0 6.117 0.453 9.165 1.405l168.351 52.602 134.525-77.668-137.268-79.252-165.607 51.745c-16.186 5.057-33.402-3.963-38.458-20.147s3.963-33.402 20.147-38.458l111.627-34.878-122.351-70.639c-14.683-8.477-19.714-27.253-11.236-41.935 5.687-9.849 16.005-15.355 26.614-15.355 5.208 0 10.487 1.327 15.321 4.118l124.037 71.613-26.238-116.916c-3.713-16.544 6.689-32.965 23.232-36.676 2.264-0.509 4.523-0.752 6.751-0.752 14.047 0 26.722 9.704 29.926 23.984l38.621 172.099 134.756 77.802 0-159.13-127.847-117.76c-12.471-11.487-13.268-30.908-1.782-43.379 6.053-6.571 14.307-9.9 22.588-9.9 7.434 0 14.891 2.685 20.791 8.12l86.25 79.445v-122.276c0-16.954 13.745-30.699 30.699-30.699s30.699 13.745 30.699 30.699v123.797l87.901-80.966c12.472-11.489 31.892-10.688 43.379 1.781 11.488 12.471 10.689 31.892-1.781 43.379l-129.499 119.282v158.561l137.017-79.107 38.621-172.099c3.205-14.28 15.879-23.984 29.926-23.984 2.227 0 4.488 0.244 6.752 0.752 16.543 3.712 26.944 20.133 23.231 36.676l-26.238 116.916 123.428-71.261c4.835-2.793 10.112-4.118 15.321-4.118 10.61 0 20.93 5.506 26.615 15.355 8.476 14.683 3.445 33.459-11.238 41.936z"  horiz-adv-x="1024" />

    
    <glyph glyph-name="xiaoxi" unicode="&#58946;" d="M814.272753 746.616471H210.00192C143.290127 746.616471 89.148235 692.474579 89.148235 625.761581v-362.558645c0-66.712998 54.141892-120.856094 120.853685-120.856094h120.672979v-61.755633c0-22.661722 12.689167-43.023661 32.994485-53.056451 8.398005-4.046607 17.340536-6.10304 26.222832-6.10304 12.751812 0 25.379539 4.171896 35.955652 12.268724l141.096358 108.647605H814.272753c66.712998 0 120.853685 54.143096 120.853685 120.856094V625.761581C935.127642 692.474579 880.983341 746.616471 814.272753 746.616471z m60.425638-483.413535c0-33.418541-27.009506-60.428047-60.425638-60.428047l-257.362522 0.059031c-6.645158 0-13.110814-2.172085-18.369356-6.223511l-147.500574-116.079435v92.088922c0 16.677948-13.53728 30.152584-30.154993 30.152584H210.00192c-33.414927 0-60.426842 27.011915-60.426842 60.428047V625.761581c0 33.417336 27.010711 60.428047 60.426842 60.428047H814.272753c33.418541 0 60.425638-27.011915 60.425638-60.428047v-362.558645z"  horiz-adv-x="1024" />

    
    <glyph glyph-name="icon_liwu_w" unicode="&#58881;" d="M221.865-50.258c-37.125 0-67.328 30.203-67.328 67.328v338.002h-26.537c-11.955 0-24.658 8.643-24.658 24.658v132.27c0 35.948 28.943 63.058 67.328 63.058h69.955l-17.347 16.364c-28.621 26.998-43.136 60.57-43.136 99.779 0 41.196 25.585 84.229 63.667 107.080 19.743 11.843 42.327 17.848 67.128 17.848 25.165 0 51.282-6.164 77.629-18.33 55.675-28.877 93.276-87.199 114.949-131l8.484-17.157 8.489 17.162c21.668 43.802 59.274 102.118 115.338 131.19 25.953 11.971 51.533 18.135 75.633 18.135 23.88 0 47.114-6.072 69.069-18.043 37.74-22.656 63.324-65.69 63.324-106.885 0-39.209-14.515-72.776-43.136-99.779l-17.347-16.364h69.949c36.495 0 67.328-28.877 67.328-63.058v-134.897c-3.661-9.574-13.235-22.036-24.658-22.036h-26.542v-338.002c0-37.125-30.203-67.328-67.328-67.328h-580.255zM536.658-5.202h261.212c9.421 0 18.002 8.581 18.002 18.002v338.002h-279.209v-356.004zM199.593 12.8c0-9.421 8.581-18.002 18.007-18.002h269.742v355.999h-287.744v-337.997zM536.658 400.128h338.939v111.872c0 9.421-8.581 18.007-18.002 18.007h-320.942v-129.879zM167.322 531.676c-7.060 0-14.659-6.159-14.659-19.676v-111.872h334.679v129.879h-313.626c-1.85 1.048-4.063 1.667-6.42 1.669zM713.6 773.207c-16.348 0-33.925-4.644-52.234-13.798-71.347-35.671-109.85-137.308-119.951-167.608l-4.163-12.467h102.748c78.423 0 163.072 42.772 163.072 111.872 0 19.149-13.379 52.756-43.1 67.937-14.198 9.329-29.798 14.065-46.372 14.065zM307.2 773.207c-14.643 0-29.332-4.844-43.653-14.392-29.281-19.517-42.619-48.732-42.619-67.615 0-73.446 82.033-111.872 163.072-111.872h102.743l-4.157 12.467c-29.245 87.726-69.678 144.154-120.182 167.721-18.079 9.047-36.731 13.691-55.204 13.691z"  horiz-adv-x="1024" />

    
    <glyph glyph-name="SmokeDetector" unicode="&#58910;" d="M511.902 853.11c-261.022 0-472.615-211.594-472.615-472.615s211.594-472.615 472.615-472.615 472.615 211.594 472.615 472.615-211.594 472.615-472.615 472.615zM511.902-52.736c-238.887 0-433.231 194.343-433.231 433.231 0 238.887 194.343 433.231 433.231 433.231s433.231-194.343 433.231-433.231c0-238.887-194.343-433.231-433.231-433.231zM708.825 380.495c0 108.761-88.162 196.923-196.923 196.923s-196.923-88.162-196.923-196.923 88.162-196.923 196.923-196.923 196.923 88.162 196.923 196.923zM511.902 222.956c-86.863 0-157.538 70.676-157.538 157.538 0 86.863 70.676 157.538 157.538 157.538s157.538-70.676 157.538-157.538c0-86.863-70.676-157.538-157.538-157.538zM511.902 498.649c-65.26 0-118.154-52.894-118.154-118.154s52.894-118.154 118.154-118.154c65.26 0 118.154 52.894 118.154 118.154 0 65.26-52.894 118.154-118.154 118.154zM511.902 301.726c-43.441 0-78.769 35.328-78.769 78.769s35.328 78.769 78.769 78.769 78.769-35.328 78.769-78.769-35.328-78.769-78.769-78.769zM826.978 380.495c0-21.752 17.633-39.385 39.385-39.385s39.385 17.633 39.385 39.385c0 21.752-17.633 39.385-39.385 39.385-21.752 0-39.385-17.633-39.385-39.385zM146.708 541.223c3.308-2.166 7.030-3.19 10.713-3.19 6.439 0 12.741 3.151 16.522 8.96 0.945 1.438 95.35 145.034 185.462 168.94 10.516 2.796 16.778 13.568 13.982 24.084s-13.548 16.798-24.084 13.982c-104.763-27.786-204.209-179.102-208.384-185.521-5.908-9.137-3.328-21.327 5.79-27.254zM200.074 529.172c-5.986-9.078-3.466-21.287 5.612-27.274 3.328-2.186 7.089-3.249 10.811-3.249 6.4 0 12.682 3.111 16.463 8.862 0.847 1.28 85.386 128.276 165.77 149.327 10.516 2.757 16.817 13.529 14.060 24.044-2.757 10.496-13.43 16.817-24.044 14.060-94.976-24.891-184.891-160.020-188.672-165.77zM662.036 728.379c1.457-0.906 147.495-91.254 173.863-180.874 2.521-8.586 10.358-14.139 18.885-14.139 1.831 0 3.702 0.276 5.553 0.807 10.437 3.072 16.404 14.021 13.332 24.458-30.602 103.995-184.517 199.326-191.055 203.323-9.275 5.711-21.406 2.777-27.077-6.498-5.691-9.255-2.777-21.386 6.498-27.077zM624.148 668.318c1.3-0.807 130.462-81.762 153.738-161.713 2.501-8.606 10.358-14.198 18.905-14.198 1.812 0 3.682 0.256 5.494 0.807 10.437 3.033 16.443 13.962 13.41 24.399-27.431 94.287-164.923 180.539-170.772 184.182-9.236 5.75-21.386 2.875-27.116-6.341-5.73-9.255-2.895-21.386 6.341-27.136zM873.708 230.006c-9.413 5.514-21.445 2.422-26.959-6.971-0.886-1.516-89.718-150.823-177.27-177.664-10.398-3.19-16.246-14.198-13.056-24.596 2.599-8.487 10.378-13.922 18.826-13.922 1.91 0 3.84 0.276 5.77 0.866 102.183 31.33 195.722 188.652 199.68 195.348 5.494 9.354 2.383 21.406-6.991 26.939zM821.662 241.585c5.553 9.334 2.501 21.425-6.853 26.998-9.334 5.593-21.425 2.501-26.998-6.853-22.055-37.002-93.538-137.374-158.464-157.066-10.398-3.151-16.286-14.159-13.135-24.556 2.58-8.507 10.378-13.982 18.846-13.982 1.89 0 3.801 0.276 5.711 0.847 92.672 28.101 177.329 168.625 180.894 174.612zM354.855 45.686c-1.516 0.886-151.198 89.462-178.097 176.798-3.21 10.417-14.257 16.266-24.615 13.036-10.398-3.21-16.226-14.238-13.017-24.615 31.409-101.986 189.125-195.289 195.82-199.207 3.131-1.831 6.558-2.698 9.925-2.698 6.754 0 13.351 3.486 17.014 9.728 5.494 9.393 2.343 21.465-7.030 26.959zM393.63 104.487c-37.1 21.996-137.708 93.282-157.44 158.031-3.17 10.417-14.218 16.246-24.576 13.115-10.398-3.17-16.266-14.178-13.095-24.576 28.18-92.495 169.019-176.896 175.006-180.46 3.151-1.871 6.617-2.757 10.023-2.757 6.715 0 13.273 3.446 16.955 9.649 5.573 9.354 2.481 21.425-6.873 26.998z"  horiz-adv-x="1024" />

    
    <glyph glyph-name="guanyuwomen" unicode="&#58883;" d="M512-128a512 512 0 1 0 512 512 512.5376 512.5376 0 0 0-512-512z m0 964.0448A452.096 452.096 0 1 1 964.0704 384 452.608 452.608 0 0 1 512 836.096z m0-288.9216a101.8112 101.8112 0 1 0 101.7856 101.7856A101.9136 101.9136 0 0 0 512 547.1744z m0 143.7184a41.9328 41.9328 0 1 1 41.9072-41.9328A41.984 41.984 0 0 1 512 690.8928z m71.8592-673.6384h-143.7184a29.9264 29.9264 0 0 0-29.952 29.9264V460.1344a29.9264 29.9264 0 0 0 29.952 29.9264h143.7184a29.9264 29.9264 0 0 0 29.9264-29.9264v-412.9536a29.9264 29.9264 0 0 0-29.9264-29.9264z m-113.7664 59.8784h83.84V430.08h-83.84v-353.0496z"  horiz-adv-x="1024" />

    
    <glyph glyph-name="left" unicode="&#58914;" d="M486.649 61.002c6.747 0 13.495 2.574 18.645 7.722 10.297 10.298 10.297 26.993 0 37.29l-277.987 277.986 277.987 277.987c10.297 10.298 10.297 26.993 0 37.289-10.298 10.297-26.992 10.297-37.29 0l-296.631-296.631c-10.297-10.297-10.297-26.992 0-37.289l296.631-296.631c5.149-5.149 11.898-7.723 18.645-7.723z"  horiz-adv-x="1024" />

    
    <glyph glyph-name="tubiao-" unicode="&#58959;" d="M937.301 407.893v23.211c-0.347 4.543-1.306 8.756-2.8 12.707-16.491 217.121-199.357 389.065-422.384 389.065-222.063 0-404.312-170.463-423.034-387.673-1.538-5.769-2.373-10.592-2.397-15.607l0.012-107.036c0-25.135 20.376-45.511 45.511-45.511h40.050c25.135 0 45.511 20.376 45.511 45.511 0 0 0 0 0 0l0 108.544c-0 25.135-20.376 45.511-45.511 45.511 0 0 0 0 0 0h-32.996c33.338 178.124 187.618 311.132 372.964 311.132 185.345 0 339.625-133.008 372.597-308.781l-33.539-2.351c0 0 0 0 0 0-25.135 0-45.511-20.376-45.511-45.511 0 0 0 0 0 0v-108.544c0-25.135 20.376-45.511 45.511-45.511 0 0 0 0 0 0h17.294c-48.48-129.699-162.405-224.388-300.517-244.566 10.12 1.282 7.527-0.151 5.294-2.002-6.973 28.479-32.116 46.29-61.42 46.29-39.085 0-70.77-31.685-70.77-70.77 0-39.085 31.685-70.77 70.77-70.77 33.529 0 61.612 23.317 68.919 54.62 0.742 0.413 1.495 0.375 2.256 0.375 0.761 0 1.514 0.037 2.256 0.11l4.002-0.007c163.049 30.747 291.54 151.346 333.305 307.401 7.422-2.284 14.133 10.53 14.172 24.913l-0 77.286c0 2.731 0.455 5.234 0.455 7.964zM172.487 430.649v-108.089h-40.277v85.333c0 7.964 0 15.474 1.138 22.756h38.912zM512.228-19.911c-13.824 0-25.031 11.207-25.031 25.031s11.207 25.031 25.031 25.031c13.824 0 25.031-11.207 25.031-25.031-0.256-13.627-11.363-24.576-25.027-24.576-0.001 0-0.003 0-0.004 0zM851.513 321.422v109.682h39.14v-31.858c-0.661-30.013-4.699-58.767-11.75-86.316l-27.617 9.402zM784.612 410.852c0 148.925-120.728 269.653-269.653 269.653s-269.653-120.728-269.653-269.653c0-148.925 120.728-269.653 269.653-269.653 148.873 0.13 269.524 120.78 269.653 269.641zM291.044 410.852c0 123.79 100.352 224.142 224.142 224.142s224.142-100.352 224.142-224.142c0-123.79-100.352-224.142-224.142-224.142-123.738 0.129-224.013 100.404-224.142 224.13zM637.156 310.5c3.054 3.839 4.9 8.758 4.9 14.108 0 12.571-10.191 22.763-22.763 22.763-7.221 0-13.657-3.363-17.827-8.608-21.518-27.242-54.494-44.538-91.51-44.538-36.505 0-69.081 16.822-90.399 43.136-4.353 4.856-10.384 7.759-17.092 7.759-12.568 0-22.756-10.188-22.756-22.756 0-5.063 1.653-9.739 4.45-13.519 29.996-36.554 75.233-59.744 125.887-59.785l7.644 0c49.632 2.432 93.106 26.845 121.183 63.638z"  horiz-adv-x="1024" />

    
    <glyph glyph-name="dianshi" unicode="&#58882;" d="M945.482794 624.364293H531.614585L697.90202 872.191784 664.841907 896 482.641208 624.364293h-106.951933L201.506887 886.254668l-33.800265-23.931574 158.269124-237.958801H78.271614a62.357788 62.357788 0 0 1-61.926033-62.666184v-627.031924A62.283773 62.283773 0 0 1 78.271614-128h867.21118a62.283773 62.283773 0 0 1 61.926033 62.666185V561.698109a62.357788 62.357788 0 0 1-61.926033 62.666184z m20.600891-689.698108a20.613227 20.613227 0 0 0-20.600891-20.847609H78.271614a20.687243 20.687243 0 0 0-20.600891 20.847609V561.698109a20.773594 20.773594 0 0 0 20.600891 20.847608l425.093844-0.246717 0.246718 0.246717h441.870618a20.687243 20.687243 0 0 0 20.600891-20.847608v-627.031924zM738.980445 498.908565H202.12368a62.283773 62.283773 0 0 1-61.926033-62.666185v-376.243826a62.357788 62.357788 0 0 1 61.926033-62.666184h536.856765a62.283773 62.283773 0 0 1 61.926033 62.666184v376.243826a62.209758 62.209758 0 0 1-61.926033 62.666185z m20.72425-438.910011a20.798265 20.798265 0 0 0-20.72425-20.847608H202.12368a20.773594 20.773594 0 0 0-20.600891 20.847608v376.243826a20.687243 20.687243 0 0 0 20.600891 20.847609h536.856765a20.711914 20.711914 0 0 0 20.72425-20.847609v-376.243826z m123.852066 397.091435z m-41.325142 0a41.325142 41.325142 0 1 1 41.325142 41.818576 41.485508 41.485508 0 0 1-41.325142-41.818576m41.325142-125.332369z m-41.325142 0a41.325142 41.325142 0 1 1 41.325142 41.818576 41.596531 41.596531 0 0 1-41.325142-41.818576"  horiz-adv-x="1024" />

    
    <glyph glyph-name="chufang" unicode="&#58908;" d="M837.189189 478.097297V370.162162c11.07027-5.535135 20.756757-12.454054 29.05946-20.756757 11.07027-12.454054 16.605405-27.675676 16.605405-44.281081l15.221622-257.383783s6.918919-24.908108-20.756757-58.118919c-22.140541-29.059459-63.654054-34.594595-92.713514-11.070271-4.151351 2.767568-8.302703 6.918919-11.07027 11.070271-13.837838 16.605405-20.756757 35.978378-20.756757 58.118919l15.221622 257.383783c0 16.605405 5.535135 31.827027 15.221622 44.281081 6.918919 8.302703 16.605405 15.221622 26.291892 20.756757v107.935135c-58.118919 11.07027-119.005405 73.340541-119.005406 164.670271 0 85.794595 55.351351 160.518919 134.227027 160.518918 80.259459 0 134.227027-77.491892 134.227027-160.518918 0-89.945946-60.886486-153.6-121.772973-164.670271z m-30.443243-172.972973l-15.221622-257.383783c0-26.291892 16.605405-42.897297 33.210811-42.897298 15.221622 0 33.210811 16.605405 33.210811 42.897298l-15.221622 256v1.383783c0 6.918919-1.383784 12.454054-5.535135 17.98919-4.151351 5.535135-12.454054 8.302703-19.372973 2.767567-1.383784-1.383784-2.767568-1.383784-2.767567-2.767567-5.535135-5.535135-8.302703-11.07027-8.302703-17.98919z m17.989189 458.032433c-48.432432 0-94.097297-48.432432-94.097297-119.005406 0-65.037838 45.664865-124.540541 92.713513-124.54054 51.2 0 95.481081 59.502703 95.481081 124.54054 0 70.572973-45.664865 119.005405-94.097297 119.005406zM579.805405 519.610811H512V370.162162c11.07027-5.535135 20.756757-12.454054 30.443243-20.756757 9.686486-12.454054 16.605405-29.059459 15.221622-44.281081l15.221621-257.383783c0-20.756757-6.918919-41.513514-19.372972-58.118919-12.454054-15.221622-31.827027-24.908108-52.583784-24.908108s-40.12973 9.686486-52.583784 24.908108c-13.837838 16.605405-20.756757 37.362162-20.756757 58.118919L442.810811 305.124324c0 16.605405 5.535135 31.827027 15.221621 44.281081 6.918919 8.302703 15.221622 15.221622 26.291892 20.756757V519.610811h-67.805405c-15.221622 0-27.675676 12.454054-27.675676 27.675675V776.994595h1.383784c4.151351 11.07027 15.221622 16.605405 24.908108 12.454054 5.535135-1.383784 11.07027-6.918919 12.454054-12.454054h1.383784v-189.578379c0-15.221622 12.454054-27.675676 27.675676-27.675675V763.156757c0 6.918919 5.535135 13.837838 13.837837 13.837838s13.837838-5.535135 13.837838-13.837838v-203.416216h27.675676V763.156757c0 6.918919 5.535135 13.837838 13.837838 13.837838s13.837838-5.535135 13.837838-13.837838v-203.416216c15.221622 0 27.675676 12.454054 27.675675 27.675675V776.994595c4.151351 11.07027 15.221622 16.605405 24.908108 12.454054 5.535135-1.383784 11.07027-6.918919 12.454055-12.454054h1.383783v-229.708109c0-15.221622-12.454054-27.675676-26.291892-27.675675z m-96.864864-214.486487l-15.221622-257.383783c0-11.07027 4.151351-22.140541 11.07027-31.827027 5.535135-6.918919 13.837838-11.07027 22.140541-11.070271 8.302703 0 16.605405 4.151351 22.14054 11.070271 6.918919 8.302703 11.07027 19.372973 11.070271 31.827027l-15.221622 257.383783c0 6.918919-1.383784 12.454054-5.535135 17.98919-2.767568 4.151351-6.918919 5.535135-11.07027 5.535135h-1.383784c-4.151351 0-8.302703-2.767568-11.070271-5.535135-4.151351-5.535135-6.918919-11.07027-6.918918-17.98919z m-222.78919 29.05946v-319.654054c0-12.454054-5.535135-26.291892-13.837837-34.594595-9.686486-9.686486-22.140541-15.221622-34.594595-15.221621h-41.513514c-13.837838 0-26.291892 5.535135-34.594594 15.221621-9.686486 9.686486-15.221622 22.140541-15.221622 34.594595V634.464865c0 52.583784 65.037838 159.135135 65.037838 159.135135 5.535135 9.686486 17.989189 12.454054 26.291892 6.918919 2.767568-1.383784 4.151351-2.767568 5.535135-5.535135 0 0 77.491892-106.551351 77.491892-195.113514V370.162162c0-9.686486-34.594595-35.978378-34.594595-35.978378z m-98.248648-326.572973c1.383784-1.383784 4.151351-2.767568 6.918919-2.767568h41.513513c2.767568 0 5.535135 1.383784 6.918919 2.767568 4.151351 2.767568 8.302703 5.535135 11.07027 9.686486V330.032432h-67.805405v-315.502702c-1.383784-2.767568 0-5.535135 1.383784-6.918919z m92.713513 606.097297c0 49.816216-30.443243 98.248649-52.583784 131.45946-16.605405-31.827027-42.897297-83.027027-42.897297-110.702703V370.162162h80.25946l15.221621 13.837838V613.708108z"  horiz-adv-x="1024" />

    
    <glyph glyph-name="WIFI" unicode="&#58913;" d="M1004.01852 541a19.943 19.943 0 0 0-15.034 6.805c-59.33 67.578-130.616 120.914-211.881 158.527-84.082 38.917-174.074 58.65-267.474 58.65-92.177 0-181.092-19.239-264.276-57.18-80.386-36.666-151.195-88.747-210.46-154.794-7.38-8.222-20.024-8.905-28.243-1.522-8.22 7.382-8.901 20.033-1.523 28.256 62.966 70.17 138.207 125.507 223.633 164.472C317.18952 784.55 411.68752 805 509.62952 805c99.243 0 194.885-20.977 284.269-62.348 42.857-19.836 83.805-44.296 121.707-72.703a682.944 682.944 0 0 0 103.432-95.735c7.289-8.303 6.47-20.945-1.83-28.238a19.916 19.916 0 0 0-13.19-4.976zM859.01652 349c-5.96 0-11.86 2.641-15.804 7.688-38.655 49.467-88.753 90.383-144.878 118.326-58.84 29.293-122.284 44.145-188.57 44.145-128.523 0-248.497-57.252-329.16-157.075-6.925-8.573-19.52-9.93-28.128-3.034-8.61 6.896-9.973 19.436-3.046 28.008 42.378 52.445 96.77 95.764 157.293 125.275C370.23352 543.3 438.54652 559 509.76552 559c72.554 0 142.017-16.268 206.463-48.352 61.434-30.585 116.265-75.363 158.564-129.493 6.786-8.684 5.217-21.2-3.504-27.956A19.978 19.978 0 0 0 859.01652 349zM709.06452 151c-7.207 0-14.166 3.9-17.723 10.705-35.302 67.57-104.709 109.546-181.131 109.546-73.537 0-141.687-39.667-177.854-103.521-5.414-9.561-17.588-12.94-27.188-7.548-9.602 5.393-12.995 17.515-7.58 27.075 20.888 36.88 51.237 67.847 87.764 89.555C422.98752 299.178 466.16252 311 510.21052 311c45.49 0 89.878-12.557 128.364-36.312 37.402-23.086 67.894-55.811 88.179-94.636 5.087-9.737 1.284-21.738-8.494-26.804a19.946 19.946 0 0 0-9.195-2.248zM512.01052-37c-40.253 0-73 32.747-73 73s32.747 73 73 73c40.252 0 73-32.747 73-73s-32.748-73-73-73z m0 106.113c-18.26 0-33.114-14.854-33.114-33.113 0-18.26 14.854-33.113 33.114-33.113 18.259 0 33.114 14.854 33.114 33.113 0 18.26-14.855 33.113-33.114 33.113z"  horiz-adv-x="1024" />

    
    <glyph glyph-name="fankui" unicode="&#58932;" d="M882.005333 435.2V725.333333a165.888 165.888 0 0 1-162.474666 170.666667H191.829333A165.888 165.888 0 0 1 29.354667 725.333333v-610.986666a165.888 165.888 0 0 1 162.474666-170.666667h238.933334a149.845333 149.845333 0 0 1 110.592 49.493333l300.714666 331.434667a161.450667 161.450667 0 0 1 39.936 110.592z m-49.152 0a112.298667 112.298667 0 0 0-28.672-75.776l-300.714666-331.434667a102.4 102.4 0 0 0-74.410667-34.133333h-238.933333A117.077333 117.077333 0 0 0 78.506667 114.346667V725.333333a117.077333 117.077333 0 0 0 113.322666 121.514667h527.701334A117.077333 117.077333 0 0 0 832.853333 725.333333zM459.434667 663.552a120.490667 120.490667 0 0 1-92.16-36.181333 121.856 121.856 0 0 1-30.72-68.266667 21.845333 21.845333 0 1 1 43.349333-5.12 91.477333 91.477333 0 0 0 16.384 43.690667 71.338667 71.338667 0 0 0 60.757333 26.965333A73.386667 73.386667 0 0 0 512 605.866667a68.266667 68.266667 0 0 0 18.090667-51.2 70.656 70.656 0 0 0-16.042667-43.349334q-7.850667-8.874667-18.773333-19.797333a213.674667 213.674667 0 0 1-55.296-63.488 90.794667 90.794667 0 0 1-7.850667-22.869333 20.48 20.48 0 0 1 20.138667-24.917334h7.509333a15.701333 15.701333 0 0 1 15.701333 12.970667 74.069333 74.069333 0 0 0 9.557334 27.648 102.4 102.4 0 0 0 25.258666 29.696q34.133333 31.402667 44.032 41.301333v2.048a106.496 106.496 0 0 1 19.456 63.146667 99.328 99.328 0 0 1-30.72 77.482667 118.101333 118.101333 0 0 1-83.626666 29.013333zM451.925333 329.386667a31.061333 31.061333 0 0 1-23.552-9.216 29.354667 29.354667 0 0 1-9.898666-23.210667 34.133333 34.133333 0 0 1 34.133333-34.133333 34.133333 34.133333 0 0 1 23.552 9.216 32.085333 32.085333 0 0 1 9.216 23.552 31.402667 31.402667 0 0 1-9.216 23.210666 32.085333 32.085333 0 0 1-24.234667 10.581334zM977.92 256.682667l-26.624 24.917333a51.541333 51.541333 0 0 1-72.704-3.072l-254.976-277.162667a179.2 179.2 0 0 1-30.037333-102.4 31.402667 31.402667 0 0 1 28.330666-26.965333h4.096a180.906667 180.906667 0 0 1 99.669334 34.133333l254.976 277.162667a51.541333 51.541333 0 0 1-2.730667 73.386667z m-280.576-323.242667a162.474667 162.474667 0 0 0-64.512-22.186667 165.205333 165.205333 0 0 0 19.797333 63.146667l209.578667 227.669333 44.714667-40.96z m254.976 277.162667l-22.869333-24.576-44.714667 40.96 22.869333 24.576a12.288 12.288 0 0 0 17.408 0l26.624-24.576a12.288 12.288 0 0 0 0.682667-16.384z"  horiz-adv-x="1024" />

    
    <glyph glyph-name="dui" unicode="&#58978;" d="M512 839.111c-250.311 0-455.111-204.8-455.111-455.111S261.689-71.111 512-71.111 967.111 133.689 967.111 384 762.311 839.111 512 839.111m0-853.333c-221.867 0-398.222 176.355-398.222 398.222S290.133 782.222 512 782.222 910.222 605.867 910.222 384 733.867-14.222 512-14.222M320.91 430.194l201.16-201.16-40.221-40.22-201.16 201.16zM725.504 515.812l40.22-40.22-281.6-281.6-40.22 40.22z"  horiz-adv-x="1024" />

    
    <glyph glyph-name="xiyiji" unicode="&#58986;" d="M807.738 830.71H216.26c-62.82 0-113.745-50.926-113.745-113.746v-665.926c0-62.82 50.926-113.746 113.745-113.746h591.477c62.82 0 113.745 50.926 113.745 113.746V716.964c0 62.82-50.925 113.746-113.745 113.746zM216.26 789.348h591.477c39.976 0 72.383-32.407 72.383-72.384v-51.702H143.878v51.702c0 39.977 32.407 72.384 72.383 72.384z m591.477-810.695H216.26c-39.976 0-72.383 32.407-72.383 72.384V623.9H880.12v-572.863c0-39.977-32.407-72.384-72.383-72.384zM513.01 573.473c-150.527 0-272.99-122.462-272.99-272.99s122.463-272.989 272.99-272.989S786 149.957 786 300.484s-122.464 272.99-272.99 272.99z m0-41.362c112.077 0 205.808-80.017 227.089-185.922a20.628 20.628 0 0 1-4.568-4.539c-0.14-0.19-14.198-19.249-38.026-38.532-21.305-17.24-54.702-37.792-92.808-37.792-37.22 0-63.742 19.559-91.818 40.263-29.685 21.893-60.382 44.53-103.963 44.53-53.659 0-99.682-35.348-127.166-62.56a234.27 234.27 0 0 0-0.367 12.925c0 127.72 103.907 231.627 231.627 231.627z m0-463.253c-105.229 0-194.28 70.54-222.385 166.813 11.51 14.455 61.7 73.086 118.291 73.086 29.979 0 52.887-16.893 79.414-36.456 30.723-22.656 65.545-48.336 116.367-48.336 61.901 0 111.732 38.068 139.675 65.594-5.726-122.666-107.307-220.701-231.362-220.701zM254.497 693.423c17.106 0 31.022 13.916 31.022 31.022s-13.916 31.021-31.022 31.021-31.021-13.916-31.021-31.021 13.916-31.022 31.021-31.022zM357.902 693.423c17.106 0 31.022 13.916 31.022 31.022s-13.917 31.021-31.022 31.021-31.021-13.916-31.021-31.021 13.916-31.022 31.021-31.022z"  horiz-adv-x="1024" />

    
    <glyph glyph-name="weibolu" unicode="&#58896;" d="M889.464 759.318H132.539C62.281 759.318 0 697.037 0 628.372v-472.676c0-68.665 62.281-130.945 132.539-130.945h758.518c68.67 0 132.544 62.281 132.544 130.945V628.373c-1.598 68.664-63.874 130.945-134.137 130.945z m100.605-603.621c0-51.101-47.91-99.005-100.605-99.005H132.539c-52.695 0-100.598 47.904-100.598 99.005V628.373c0 51.101 47.904 99.005 100.598 99.005h758.518c51.101 0 100.605-47.904 100.605-99.005v-472.676h-1.593z m0 0M638.753 647.534h-415.19c-59.083 0-111.778-49.502-111.778-103.796v-305.004c0-54.294 52.695-102.198 111.778-102.198h415.19c54.294 0 111.784 31.934 111.784 87.826V543.738c0 54.294-52.701 103.796-111.784 103.796z m79.844-423.172c0-36.725-41.52-55.892-79.844-55.892h-415.19c-41.515 0-79.844 35.133-79.844 71.862V543.738c0 36.731 38.329 71.862 79.844 71.862h415.19c41.52 0 79.844-35.131 79.844-71.862v-319.376z m143.718 55.892c-35.131 0-63.874-28.743-63.874-63.874s28.743-63.874 63.874-63.874 63.874 28.743 63.874 63.874-28.743 63.874-63.874 63.874z m0-95.814c-17.563 0-31.934 14.372-31.934 31.94 0 17.563 14.371 31.934 31.934 31.934 17.568 0 31.94-14.371 31.94-31.934 0-17.568-14.372-31.94-31.94-31.94z m0 271.472c-35.131 0-63.874-28.743-63.874-63.874 0-35.133 28.743-63.88 63.874-63.88s63.874 28.748 63.874 63.88c0 35.131-28.743 63.874-63.874 63.874z m0-95.814c-17.563 0-31.934 14.372-31.934 31.94 0 17.563 14.371 31.934 31.934 31.934 17.568 0 31.94-14.371 31.94-31.934 0-17.568-14.372-31.94-31.94-31.94z m0 271.472c-35.131 0-63.874-28.748-63.874-63.88 0-35.131 28.743-63.874 63.874-63.874s63.874 28.743 63.874 63.874c0 35.133-28.743 63.88-63.874 63.88z m0-95.814c-17.563 0-31.934 14.371-31.934 31.934 0 17.568 14.371 31.94 31.934 31.94 17.568 0 31.94-14.372 31.94-31.94 0-17.563-14.372-31.934-31.94-31.934z m0 0M562.9 257.895h-27.943c-50.303 0.8-97.412 14.377-142.125 26.35-32.734 9.581-67.066 18.368-102.198 23.159-43.12 5.584-91.023 6.384-145.317 2.393l-2.397 31.939c56.691 4.791 106.992 3.991 151.705-1.598 36.731-4.791 72.656-14.372 106.993-23.952 45.506-12.778 87.826-24.752 134.137-25.551 56.687-1.598 151.701-3.191 182.042 53.494l28.743-15.17c-35.132-63.875-122.159-71.064-183.64-71.064z m0 0"  horiz-adv-x="1024" />

    
    <glyph glyph-name="chuang" unicode="&#58984;" d="M891.392-50.176c-9.728 0-17.408 8.192-17.408 17.408v18.432H160.768v-18.432c0-9.728-8.192-17.408-17.408-17.408h-11.776c-9.728 0-17.408 8.192-17.408 17.408v18.432h-48.64c-26.624 0-48.128 21.504-48.128 48.128v110.592l120.832 404.48c-1.024 2.56-1.024 5.632-1.024 8.192V763.904c0 26.624 21.504 48.128 48.128 48.128h651.264c26.624 0 48.128-21.504 48.128-48.128v-206.336c0-2.56 0-5.632-1.024-8.192l121.856-404.992v-110.592c0-26.624-21.504-48.128-48.128-48.128h-36.864v-18.432c0-9.728-8.192-17.408-17.408-17.408h-11.776zM71.168 144.896c-3.072 0-6.656-3.072-6.656-6.656v-97.28c0-4.096 3.072-6.656 6.656-6.656h880.64c3.072 0 6.656 3.072 6.656 6.656v96.768c0 4.096-3.072 6.656-6.656 6.656h-880.64v0.512z m870.4 47.104l-100.864 317.44h-68.096c-10.24-35.328-42.496-60.928-80.896-60.928h-59.904c-38.4 0-70.656 25.6-80.896 60.928H471.04c-10.24-35.328-42.496-60.928-80.896-60.928H330.24c-38.4 0-70.656 25.6-80.896 60.928H181.76l-100.864-317.44h860.672z m-309.76 390.144c-19.968 0-36.864-16.896-36.864-36.864v-11.776c0-20.992 16.896-36.864 36.864-36.864h59.904c19.968 0 36.864 16.896 36.864 36.864v11.776c0 20.992-16.896 36.864-36.864 36.864h-59.904z m-301.568 0c-19.968 0-36.864-16.896-36.864-36.864v-11.776c0-20.992 16.896-36.864 36.864-36.864h59.904c19.968 0 36.864 16.896 36.864 36.864v11.776c0 20.992-16.896 36.864-36.864 36.864H330.24z m494.592-25.6c7.168 0 12.8 5.632 12.8 12.8V752.128c0 7.168-5.632 12.8-12.8 12.8H197.632c-7.168 0-12.8-5.632-12.8-12.8v-182.272c0-7.168 5.632-12.8 12.8-12.8h49.664c5.632 40.96 40.96 72.704 83.456 72.704h59.904c42.496 0 77.824-32.256 83.456-72.704h75.264c5.632 40.96 40.96 72.704 83.456 72.704h59.904c42.496 0 77.824-32.256 83.456-72.704l48.64-0.512z"  horiz-adv-x="1024" />

    
    <glyph glyph-name="fenxiangcopy" unicode="&#58922;" d="M620.62946511 557.80714417a65.17767906 65.17767906 0 1 1 0 130.35535812 65.17767906 65.17767906 0 0 1 0-130.35535812z m0-43.45178605a108.62946511 108.62946511 0 1 0 0 217.25893021 108.62946511 108.62946511 0 0 0 0-217.25893021zM707.53303719 79.83749770999998a65.17767906 65.17767906 0 1 1 0 130.35535812 65.17767906 65.17767906 0 0 1 0-130.35535812z m0-43.45178604a108.62946511 108.62946511 0 1 0 0 217.25893021 108.62946511 108.62946511 0 0 0 0-217.25893021zM273.01517678 297.09642791a65.17767906 65.17767906 0 1 1 0 130.35535812 65.17767906 65.17767906 0 0 1 0-130.35535811z m0-43.45178603a108.62946511 108.62946511 0 1 0 0 217.25893021 108.62946511 108.62946511 0 0 0 0-217.25893021zM330.76260042 397.64386082l-22.37766981 37.23818064 254.49711085 152.73302793 22.3776698-37.23818064-254.49711084-152.73302793z m21.07411623-107.97768832l22.37766981 37.23818065 254.49711085-152.73302795-22.37766982-37.23818062-254.49711084 152.73302793z"  horiz-adv-x="1024" />

    
    <glyph glyph-name="xin1" unicode="&#58884;" d="M511.987-15.927c-11.778 0-23.397 3.967-32.717 11.169-6.322 4.887-63.714 49.503-131.443 110.731-90.284 81.62-155.042 152.78-192.476 211.504-16.984 26.669-33.263 53.062-45.803 82.796-14.956 35.462-22.225 70.536-22.225 107.227 0 67.594 24.281 131.373 68.372 179.587 45.312 49.55 105.938 76.838 170.712 76.838 72.511 0 140.648-35.542 185.59-94.887 44.955 59.343 113.097 94.887 185.596 94.887 64.765 0 125.388-27.288 170.701-76.837 44.098-48.219 68.383-111.998 68.383-179.588 0-83.24-39.333-144.955-68.054-190.018-37.422-58.726-102.177-129.888-192.467-211.51-67.731-61.229-125.131-105.847-131.453-110.732-9.325-7.202-20.942-11.167-32.716-11.167z m-185.58 729.854c-50.567 0-98.09-21.515-133.814-60.581-35.642-38.975-55.27-90.771-55.27-145.845 0-29.887 5.984-58.605 18.295-87.797 11.03-26.153 26.114-50.57 41.901-75.358 84.647-132.791 303.07-302.387 312.327-309.542a3.47 3.47 0 0 1 2.141-0.73c0.545 0 1.36 0.127 2.146 0.734 9.253 7.15 227.699 176.748 312.323 309.545 28.228 44.291 60.22 94.487 60.22 163.148 0 55.07-19.632 106.866-55.279 145.845-35.727 39.065-83.246 60.58-133.805 60.58-67.126 0-129.784-39.45-163.522-102.955a24.999 24.999 0 0 0-22.078-13.271h-0.003a25 25 0 0 0-22.078 13.276c-33.717 63.502-96.369 102.951-163.504 102.951z"  horiz-adv-x="1024" />

    
    <glyph glyph-name="daizhifu" unicode="&#58912;" d="M337.454545 209.454545h23.272728a23.272727 23.272727 0 0 0 0-46.545454h-46.545455a23.272727 23.272727 0 0 0-23.272727 23.272727v93.090909a23.272727 23.272727 0 0 0 46.545454 0v-69.818182z m134.074182-127.441454A186.181818 186.181818 0 1 0 232.727273 359.191273v187.810909c0 15.243636 4.887273 29.346909 13.172363 40.820363a92.951273 92.951273 0 0 0 59.857455 54.225455L683.287273 753.454545a69.818182 69.818182 0 0 0 87.412363-49.570909l22.341819-87.086545H814.545455a69.818182 69.818182 0 0 0 69.818181-69.818182v-395.636364a69.818182 69.818182 0 0 0-69.888-69.72509l-342.946909 0.372363zM279.272727 378.228364a186.181818 186.181818 0 0 0 219.182546-250.135273H814.545455a23.272727 23.272727 0 0 1 23.272727 23.272727v93.090909h-81.454546a104.727273 104.727273 0 1 0 0 209.454546H837.818182v93.090909a23.272727 23.272727 0 0 1-23.272727 23.272727H302.545455a23.272727 23.272727 0 0 1-23.272728-23.272727v-168.773818z m114.176 238.592H745.192727l-19.409454 76.450909A23.272727 23.272727 0 0 1 696.389818 709.818182l-302.941091-92.974546z m362.914909-325.818182H837.818182v116.363636h-81.454546a58.181818 58.181818 0 0 1 0-116.363636z m-9.704727 59.531636a22.690909 22.690909 0 0 0 34.094546 19.642182 22.667636 22.667636 0 1 0-22.714182-39.284364 22.690909 22.690909 0 0 0-11.380364 19.642182zM325.818182 58.274909a139.636364 139.636364 0 1 1 0 279.272727 139.636364 139.636364 0 0 1 0-279.272727z"  horiz-adv-x="1024" />

    
    </font>
</defs>
</svg>
